<?xml version="1.0" standalone="no"?>
<!DOCTYPE svg PUBLIC "-//W3C//DTD SVG 20010904//EN"
 "http://www.w3.org/TR/2001/REC-SVG-20010904/DTD/svg10.dtd">
<svg version="1.0" xmlns="http://www.w3.org/2000/svg"
 width="1024.000000pt" height="1024.000000pt" viewBox="0 0 1024.000000 1024.000000"
 preserveAspectRatio="xMidYMid meet">

<g transform="translate(0.000000,1024.000000) scale(0.100000,-0.100000)"
fill="#000000" stroke="none">
<path d="M5089 9446 c-20 -14 -42 -38 -49 -55 -11 -27 -17 -31 -52 -31 -145 0
-699 -102 -848 -156 -41 -15 -68 -20 -74 -14 -13 13 -62 13 -89 -1 -12 -6 -34
-23 -49 -37 -15 -14 -71 -42 -125 -62 -168 -64 -363 -161 -363 -180 0 -29 24
-29 91 0 203 88 363 160 381 172 18 12 26 12 60 -5 49 -25 83 -13 103 36 l14
34 193 42 c106 23 267 53 358 66 258 38 354 53 371 60 11 4 24 -6 42 -34 38
-57 69 -75 118 -68 50 7 76 29 91 79 12 40 18 44 47 29 9 -5 55 -15 101 -21
322 -43 607 -103 853 -180 71 -22 139 -40 152 -40 27 0 40 -14 49 -54 4 -16
20 -41 36 -57 24 -25 36 -29 81 -29 l53 0 170 -174 c94 -96 189 -195 211 -221
22 -26 92 -90 155 -143 284 -238 426 -374 523 -501 125 -164 169 -247 212
-396 14 -47 36 -107 49 -133 12 -26 33 -78 46 -117 51 -156 74 -218 78 -207 2
7 8 10 12 7 18 -11 -48 183 -89 263 -12 23 -36 83 -55 134 -50 139 -88 232
-97 238 -9 6 -24 60 -16 60 17 0 246 -331 326 -472 58 -103 44 -61 -21 62 -35
66 -98 167 -141 223 -112 148 -225 306 -254 355 -28 48 -52 143 -53 209 0 38
-13 63 -27 50 -3 -3 4 -50 15 -104 11 -54 19 -99 17 -101 -2 -2 -45 39 -97 90
-105 105 -276 265 -483 449 -77 69 -211 199 -297 290 -132 137 -155 166 -144
177 11 12 18 10 39 -12 14 -14 83 -54 154 -89 236 -117 486 -273 672 -421 46
-36 88 -66 93 -66 4 0 8 -19 8 -43 0 -75 50 -117 140 -117 28 0 49 -4 46 -9
-3 -5 36 -57 88 -115 190 -216 357 -469 491 -741 90 -183 144 -325 224 -586
73 -238 56 -258 -73 -87 -111 146 -239 333 -282 409 -19 35 -44 75 -56 89 -18
22 -17 20 3 -15 12 -22 36 -65 52 -95 17 -30 63 -104 102 -165 40 -60 98 -150
130 -200 32 -49 74 -109 93 -132 40 -50 38 -61 -24 -148 -50 -72 -79 -99 -93
-91 -5 4 -33 47 -62 96 -28 50 -53 90 -56 90 -2 0 19 -45 48 -100 l52 -100
-20 -23 c-19 -19 -58 -137 -46 -137 8 0 -84 -75 -148 -120 -80 -56 -203 -176
-194 -190 4 -6 32 9 68 38 34 27 70 53 79 58 9 5 64 54 123 109 93 87 105 102
100 125 l-6 25 16 -22 c12 -17 26 -23 53 -23 31 0 41 5 56 30 20 35 14 84 -12
99 -14 8 -11 15 24 53 22 23 52 60 68 81 16 20 32 37 37 37 32 0 64 -152 75
-348 l6 -107 -36 40 c-20 22 -59 68 -88 102 -50 59 -53 61 -56 37 -2 -15 -1
-36 2 -48 7 -25 101 -127 110 -119 3 3 21 -11 41 -32 31 -34 35 -45 35 -91 0
-28 3 -72 6 -98 l7 -46 58 0 59 0 0 43 c0 126 -25 383 -54 568 -7 41 -9 84 -5
95 15 39 9 81 -20 126 -16 25 -36 78 -45 119 -102 452 -297 870 -596 1274 -53
72 -137 172 -187 224 -83 86 -91 97 -86 126 13 80 -85 159 -168 135 -30 -9
-35 -6 -88 49 -66 68 -159 138 -331 248 -135 87 -415 235 -517 274 -35 13 -63
29 -63 36 0 33 -35 95 -61 108 -56 30 -139 12 -173 -37 -14 -20 -17 -20 -33
-6 -43 38 -419 145 -612 173 -163 24 -449 55 -509 55 -55 0 -58 2 -69 30 -13
35 -67 70 -108 70 -17 0 -46 -11 -66 -24z"/>
<path d="M2427 9236 c-80 -29 -148 -95 -176 -169 -17 -44 -13 -148 8 -208 26
-76 102 -225 179 -352 l66 -108 18 23 c25 32 181 293 211 353 65 130 73 245
23 330 -31 52 -63 75 -72 50 -4 -8 -4 -24 -1 -34 4 -18 -6 -20 -35 -4 -4 2 -1
21 7 43 9 26 10 42 4 46 -15 9 -22 -2 -24 -33 -1 -26 -35 -49 -35 -24 0 6 5
11 10 11 6 0 10 7 10 16 0 8 -4 13 -10 9 -5 -3 -21 -3 -36 1 -22 6 -25 11 -20
35 5 29 5 29 -42 29 -26 -1 -64 -7 -85 -14z m157 -87 c-2 -4 4 -10 14 -13 33
-11 81 -70 93 -116 15 -58 6 -107 -30 -157 -58 -80 -154 -96 -237 -40 -58 39
-84 86 -84 150 0 78 49 145 126 172 41 15 127 17 118 4z"/>
<path d="M2500 9061 c0 -7 -5 -9 -12 -5 -7 4 -8 3 -4 -4 5 -9 13 -9 26 -2 13
7 21 7 25 0 4 -6 10 -8 15 -5 10 6 22 -23 14 -36 -3 -5 4 -21 15 -35 12 -15
21 -36 21 -48 0 -17 2 -18 10 -6 19 29 11 78 -17 110 -29 31 -93 53 -93 31z"/>
<path d="M2431 9024 c-21 -27 -26 -50 -15 -78 8 -22 24 -10 23 17 0 21 -1 21
-9 2 -8 -18 -9 -17 -9 8 -1 19 3 26 11 21 7 -4 8 -3 4 4 -4 7 -3 12 3 12 6 0
15 9 21 20 16 29 -5 25 -29 -6z"/>
<path d="M5029 9016 c-2 -2 -47 -6 -99 -10 -342 -23 -751 -136 -1062 -292
-131 -66 -365 -214 -470 -299 -354 -285 -645 -681 -846 -1155 -43 -102 -119
-343 -151 -481 -27 -113 -58 -348 -66 -489 -5 -102 6 -344 19 -409 10 -45 36
-246 39 -291 l2 -45 79 -3 c71 -3 78 -1 72 14 -12 31 -55 316 -66 434 -42 472
57 975 279 1418 170 339 480 722 756 933 201 154 518 324 740 398 149 50 391
106 540 125 334 44 727 25 1035 -50 595 -145 1146 -517 1531 -1034 264 -354
429 -746 503 -1195 68 -413 20 -888 -132 -1315 -93 -258 -273 -576 -430 -758
-52 -60 -98 -86 -130 -74 -21 7 -4 63 29 97 72 73 243 342 334 525 153 305
240 674 252 1065 10 317 -31 589 -131 885 -120 352 -285 629 -548 921 -86 95
-263 258 -290 268 -6 2 -20 12 -32 22 -12 10 -32 27 -45 38 -13 12 -27 21 -30
21 -3 0 -19 12 -36 26 -63 55 -180 126 -380 228 -143 73 -348 146 -390 139
-24 -4 -27 -2 -15 7 12 10 11 11 -7 7 -12 -3 -27 1 -33 8 -6 8 -30 17 -53 20
-23 4 -67 13 -97 20 -30 8 -102 18 -160 24 -58 6 -154 15 -213 21 -113 11
-350 4 -342 -11 3 -4 -10 -5 -30 -2 -88 14 -456 -58 -677 -133 -258 -87 -562
-255 -753 -416 -181 -152 -444 -460 -587 -688 -90 -145 -209 -416 -262 -598
-76 -261 -100 -431 -100 -712 -1 -240 6 -342 34 -505 11 -60 20 -125 20 -143
0 -25 5 -35 23 -41 26 -10 634 -31 897 -31 116 0 170 3 170 11 0 6 -21 31 -46
55 -46 45 -94 136 -94 178 0 22 -4 23 -80 29 -97 6 -153 31 -220 98 -86 86
-81 21 -78 989 3 849 3 855 24 901 33 71 88 125 150 148 53 20 74 21 918 21
475 0 866 3 869 6 3 3 1 20 -5 37 -10 33 -25 496 -15 487 3 -3 10 -107 16
-232 6 -125 15 -235 20 -245 5 -10 12 -26 15 -37 6 -17 17 -18 196 -14 104 2
192 7 196 10 3 4 1 13 -6 20 -37 43 -251 453 -286 548 -27 77 -33 101 -23 95
5 -4 9 -12 9 -20 0 -7 42 -96 94 -197 150 -291 168 -324 213 -386 41 -55 46
-59 103 -70 107 -22 235 -114 245 -176 3 -17 7 -440 9 -941 l5 -910 223 0 223
0 21 62 c59 172 184 280 350 304 81 11 215 -3 279 -31 53 -23 123 -74 158
-116 32 -38 85 -142 93 -183 9 -41 14 -44 79 -36 l55 7 0 248 0 248 -57 41
c-32 23 -107 67 -168 99 l-110 57 -530 0 -530 0 -8 110 c-4 61 -6 235 -5 387
3 250 5 279 21 295 15 16 41 18 202 21 297 6 311 -2 593 -338 276 -327 270
-322 467 -435 169 -97 236 -156 255 -223 5 -20 10 -144 10 -275 0 -267 -4
-286 -65 -333 -33 -25 -48 -29 -131 -34 -51 -3 -94 -7 -96 -10 -3 -3 -13 -27
-23 -55 -72 -196 -259 -317 -442 -285 -106 18 -168 47 -233 107 -60 55 -110
139 -125 211 l-7 32 -1018 0 -1018 0 -7 -27 c-13 -56 -66 -149 -109 -196 -24
-26 -41 -49 -37 -51 10 -7 191 -24 316 -31 61 -3 162 -10 225 -16 63 -5 218
-16 344 -24 127 -8 286 -24 355 -35 69 -10 193 -28 275 -40 166 -23 465 -89
566 -125 36 -13 101 -35 145 -48 141 -45 299 -128 393 -210 24 -20 83 -88 179
-208 32 -39 56 -107 83 -231 12 -53 11 -64 -20 -180 -17 -68 -42 -148 -54
-178 -24 -59 -39 -110 -32 -110 11 0 58 30 111 71 75 58 261 271 378 432 92
129 233 396 320 612 119 292 199 762 184 1080 -9 180 -49 458 -87 608 -91 354
-302 774 -535 1064 -37 46 -141 159 -233 251 -246 248 -442 390 -747 538 -276
135 -493 204 -798 255 -154 26 -580 51 -598 35z m614 -283 c-13 -2 -35 -2 -50
0 -16 2 -5 4 22 4 28 0 40 -2 28 -4z m52 -13 c3 -5 15 -10 26 -10 10 0 19 -7
19 -15 0 -12 -14 -15 -70 -15 -64 0 -70 2 -70 21 0 19 4 20 41 14 29 -5 40 -4
35 4 -4 6 -3 11 3 11 5 0 13 -4 16 -10z m132 -26 c-3 -3 -12 -4 -19 -1 -8 3
-5 6 6 6 11 1 17 -2 13 -5z m143 -39 c0 -1 -10 -5 -23 -7 -14 -3 -24 0 -24 7
0 7 10 10 24 7 13 -2 23 -6 23 -7z m-876 -327 c32 -39 32 -50 4 -88 l-22 -30
-23 22 c-13 12 -23 27 -23 34 0 7 -5 14 -11 16 -14 5 20 78 36 78 7 0 24 -14
39 -32z m614 -10 c17 -17 15 -35 -9 -59 -20 -20 -22 -20 -40 -3 -21 19 -25 60
-6 67 22 9 43 7 55 -5z m-1093 -38 c7 -23 -10 -60 -29 -60 -8 0 -19 7 -26 15
-11 13 -11 20 0 40 16 30 46 33 55 5z m2314 -587 c11 -24 21 -33 38 -33 31 0
29 -16 -3 -24 -16 -4 -30 -19 -40 -41 -18 -45 -41 -44 -60 0 -13 31 -19 35
-52 36 l-37 1 37 10 c33 9 39 15 48 50 9 32 15 39 33 36 14 -2 27 -15 36 -35z
m-596 -32 c26 -4 50 -11 53 -14 4 -3 9 -35 11 -70 l6 -64 -99 -5 c-55 -2 -141
-3 -191 0 l-93 4 0 74 0 73 38 4 c68 7 226 6 275 -2z m67 -1167 l0 -57 45 5
c25 3 47 3 49 -1 2 -3 7 -33 11 -65 l7 -59 -56 7 -56 6 0 -60 0 -60 -54 0
c-61 0 -66 6 -66 75 l0 44 -57 -2 -58 -2 -3 59 -3 59 67 -6 66 -6 -4 54 -5 54
41 4 c23 2 49 4 59 5 14 2 17 -7 17 -54z m-3451 -114 c9 -27 20 -35 44 -31 16
2 5 -17 -13 -22 -10 -3 -27 -21 -37 -41 -20 -43 -38 -46 -46 -8 -3 15 -16 31
-28 37 -30 13 -36 35 -10 35 12 0 24 7 26 15 3 8 7 22 10 30 8 27 42 17 54
-15z"/>
<path d="M3217 8921 c-39 -37 -42 -43 -41 -90 0 -44 -2 -51 -18 -51 -26 0 -43
-10 -183 -103 -152 -101 -266 -190 -363 -283 l-77 -74 24 -20 c13 -11 29 -20
36 -20 7 0 51 30 97 68 46 37 127 101 179 143 52 42 122 94 154 115 33 20 84
55 113 77 30 21 56 37 59 34 17 -18 -128 -233 -294 -435 -15 -18 -34 -43 -43
-55 -8 -13 -47 -63 -87 -113 -40 -49 -72 -92 -73 -96 0 -4 -22 -28 -49 -53
-48 -44 -131 -189 -131 -226 0 -8 -9 -32 -20 -54 -11 -22 -20 -48 -19 -60 0
-18 2 -17 12 5 96 214 132 274 266 429 30 35 117 141 192 235 76 94 150 186
165 205 36 43 84 118 100 157 11 26 11 34 -3 53 -20 30 -11 37 21 15 15 -9 45
-17 67 -17 77 0 121 44 121 120 0 62 -18 99 -57 117 -58 28 -100 21 -148 -23z"/>
<path d="M2391 8285 c-41 -47 -44 -113 -6 -150 25 -25 37 -29 90 -25 44 3 65
17 81 56 32 76 -14 154 -91 154 -37 0 -48 -5 -74 -35z"/>
<path d="M2295 8078 c-115 -124 -262 -320 -349 -466 l-38 -62 33 -41 c17 -22
35 -37 39 -32 4 4 38 55 76 113 37 58 129 186 204 285 75 99 139 186 143 192
10 16 -8 49 -32 63 -16 8 -28 0 -76 -52z"/>
<path d="M8755 8008 c-35 -20 -54 -52 -55 -89 0 -48 31 -86 81 -99 34 -10 43
-8 69 10 33 23 54 76 44 114 -15 61 -86 94 -139 64z"/>
<path d="M2456 7927 c-9 -41 -28 -104 -40 -139 -13 -34 -41 -112 -63 -173 -22
-60 -48 -127 -57 -149 -9 -21 -16 -50 -16 -65 0 -26 -28 -115 -30 -96 -1 6 -5
0 -10 -13 -5 -12 -6 -30 -3 -39 4 -10 2 -14 -4 -10 -12 8 -35 -71 -73 -253
-16 -74 -42 -179 -59 -233 -35 -111 -71 -261 -70 -285 0 -9 40 101 88 246 49
144 109 305 135 357 25 52 57 129 71 172 14 43 31 88 37 100 6 13 9 25 6 28
-2 3 -24 -41 -48 -97 -24 -57 -62 -141 -83 -188 -22 -47 -46 -103 -53 -125
-12 -38 -13 -39 -13 -10 -1 40 8 71 91 330 39 121 84 246 100 278 37 74 90
223 93 262 2 17 8 58 15 92 18 90 7 98 -14 10z"/>
<path d="M3401 7779 c-17 -10 -40 -33 -51 -51 -19 -32 -20 -52 -20 -876 0
-935 -3 -890 65 -932 24 -15 50 -20 98 -20 l65 0 6 38 c17 93 36 129 106 196
81 79 147 112 252 126 214 30 411 -93 482 -300 l18 -55 607 1 c800 2 717 -2
753 35 l31 30 -5 628 -4 627 -23 23 c-21 21 -23 30 -17 77 8 71 -2 137 -20
130 -7 -3 -18 3 -23 12 -9 15 -10 16 -11 0 0 -14 -9 -15 -60 -11 l-61 6 11
-27 c21 -56 16 -62 -52 -61 l-63 0 1 48 0 47 -50 0 c-68 0 -82 10 -68 47 12
33 12 103 0 103 -5 0 -6 5 -3 10 3 6 -1 10 -9 10 -9 0 -16 7 -16 15 0 8 -4 15
-10 15 -5 0 -10 -6 -10 -14 0 -7 -13 -16 -30 -19 -17 -4 -30 -13 -30 -22 0 -8
-12 -17 -27 -21 -16 -3 -38 -10 -51 -15 -36 -14 -251 -10 -296 6 -22 8 -43 12
-48 9 -4 -3 -8 8 -8 25 0 41 -15 47 -19 8 -6 -66 -16 -407 -12 -407 2 0 18 10
35 23 17 13 65 43 106 67 41 24 109 65 151 92 78 49 113 61 102 33 -3 -10 -1
-15 8 -13 7 2 14 -8 15 -23 3 -31 89 -206 134 -273 18 -26 31 -48 29 -50 -2
-1 -20 -9 -39 -16 -19 -7 -64 -30 -100 -50 -36 -21 -98 -54 -137 -75 -40 -21
-73 -41 -73 -45 0 -4 12 -12 28 -19 22 -10 187 -105 290 -168 l23 -14 -20 -27
c-30 -43 -181 -311 -181 -322 0 -14 -11 -12 -29 4 -14 13 -244 146 -313 182
l-27 14 6 -217 5 -218 -188 3 c-132 2 -191 7 -196 15 -4 7 -8 101 -8 210 0
108 -4 197 -8 197 -4 0 -12 -4 -17 -9 -6 -5 -64 -37 -130 -71 -66 -35 -139
-75 -163 -91 -24 -16 -45 -29 -47 -29 -2 0 -26 42 -53 93 -27 50 -70 130 -95
176 -26 47 -47 88 -47 92 0 5 39 27 88 50 93 45 252 138 252 148 0 4 -28 23
-62 43 -35 20 -111 64 -170 98 l-107 62 86 171 c48 95 88 174 90 177 2 2 14
-2 26 -10 49 -30 255 -149 293 -168 l41 -21 6 187 c3 103 2 205 -1 227 -6 34
-11 40 -35 43 -25 3 -40 22 -17 22 6 0 10 11 10 25 0 14 6 25 13 25 8 1 7 4
-3 9 -8 5 -222 11 -476 14 -442 5 -462 5 -493 -14z m279 -140 l0 -52 39 7 c38
6 39 5 45 -29 4 -19 4 -51 0 -70 l-6 -36 -45 7 -45 7 7 -47 7 -46 -71 0 c-71
0 -71 0 -72 28 -1 15 -1 33 0 40 1 8 -12 12 -37 12 -52 0 -62 13 -62 88 l0 64
48 -3 47 -3 3 42 3 42 70 0 69 0 0 -51z m1700 -179 c0 -5 -2 -10 -4 -10 -3 0
-8 5 -11 10 -3 6 -1 10 4 10 6 0 11 -4 11 -10z m88 -73 c2 -12 -1 -15 -12 -11
-19 7 -22 38 -3 32 6 -3 13 -12 15 -21z m-163 -67 c9 0 15 -10 15 -25 0 -17 8
-29 23 -36 22 -10 22 -10 0 -5 -12 2 -24 -1 -27 -8 -9 -19 -40 35 -43 73 -1
28 1 32 8 19 6 -10 17 -18 24 -18z m55 -19 c0 -10 -7 -21 -15 -25 -11 -4 -15
1 -15 19 0 16 6 25 15 25 8 0 15 -9 15 -19z"/>
<path d="M5380 7790 l-285 -5 265 -5 c146 -2 284 -3 307 -2 24 2 56 -4 73 -13
16 -8 30 -12 30 -7 0 13 -41 32 -75 35 -16 1 -158 0 -315 -3z"/>
<path d="M4443 7783 c8 -8 597 -7 605 1 3 3 -133 6 -303 6 -170 0 -305 -3
-302 -7z"/>
<path d="M5540 7690 c14 -4 34 -8 45 -8 16 0 15 2 -5 8 -14 4 -34 8 -45 8 -16
0 -15 -2 5 -8z"/>
<path d="M4767 7669 c7 -7 15 -10 18 -7 3 3 -2 9 -12 12 -14 6 -15 5 -6 -5z"/>
<path d="M5608 7641 l-4 -41 36 1 c19 0 44 4 54 8 17 6 15 9 -12 20 -18 8 -32
18 -32 23 0 5 -5 6 -10 3 -6 -4 -7 -11 -4 -17 4 -7 2 -8 -5 -4 -6 4 -9 11 -7
15 3 4 1 13 -3 20 -6 9 -10 -1 -13 -28z"/>
<path d="M4473 7663 c15 -2 39 -2 55 0 15 2 2 4 -28 4 -30 0 -43 -2 -27 -4z"/>
<path d="M5794 7615 c-3 -19 -2 -86 3 -147 l10 -113 1 148 c1 81 0 147 -3 147
-2 0 -7 -16 -11 -35z"/>
<path d="M1410 7619 c-132 -23 -271 -130 -330 -254 -45 -93 -57 -200 -36 -297
31 -140 318 -674 412 -768 l35 -35 34 39 c92 104 348 532 407 680 30 74 33 90
33 191 0 107 -1 112 -38 188 -55 112 -138 193 -235 230 -83 31 -193 42 -282
26z m223 -187 c146 -66 209 -238 140 -379 -44 -90 -97 -135 -185 -159 -118
-31 -214 -5 -294 80 -112 118 -114 287 -6 399 62 65 112 85 215 86 54 1 80 -5
130 -27z"/>
<path d="M1638 7299 c10 -13 8 -19 -9 -34 -23 -22 -19 -21 -164 -36 -60 -6
-115 -15 -122 -21 -7 -5 -16 -7 -21 -4 -18 11 -22 -54 -6 -92 44 -107 174
-163 267 -116 77 39 119 101 119 175 -1 53 -18 94 -53 124 -13 11 -18 13 -11
4z"/>
<path d="M5430 7619 c0 -5 5 -7 10 -4 6 3 10 8 10 11 0 2 -4 4 -10 4 -5 0 -10
-5 -10 -11z"/>
<path d="M4577 7533 c-4 -3 -7 -19 -7 -35 0 -22 -5 -28 -21 -28 -12 0 -36 -9
-55 -20 -39 -25 -54 -79 -54 -193 0 -81 27 -154 73 -196 24 -21 27 -22 33 -7
7 17 4 39 -15 150 -15 87 5 194 32 167 6 -6 11 -91 11 -238 1 -125 5 -234 9
-240 5 -8 -9 -36 -35 -74 -40 -56 -43 -65 -43 -122 1 -64 26 -122 49 -114 6 2
14 35 17 73 3 38 9 77 13 87 13 27 28 20 22 -10 -16 -79 -25 -218 -20 -341 6
-159 10 -182 28 -182 30 0 51 41 53 104 4 133 3 286 -3 376 l-6 95 43 55 c63
83 73 112 54 157 -18 42 -52 83 -70 83 -9 0 -10 -11 -2 -43 7 -33 6 -51 -7
-81 -9 -22 -18 -37 -21 -35 -2 3 -1 138 3 299 4 162 6 301 4 308 -4 12 -73 17
-85 5z"/>
<path d="M5711 7514 c0 -11 3 -14 6 -6 3 7 2 16 -1 19 -3 4 -6 -2 -5 -13z"/>
<path d="M6173 7293 l-23 -4 0 -262 c0 -144 4 -268 8 -275 16 -25 73 -28 429
-23 l362 6 -107 131 c-59 73 -151 186 -204 252 -130 161 -144 169 -313 175
-71 3 -140 3 -152 0z"/>
<path d="M8909 7211 c-23 -23 -29 -38 -29 -72 0 -35 6 -47 35 -75 l36 -33 -21
-41 c-11 -22 -34 -75 -49 -118 -16 -42 -46 -112 -66 -155 -27 -55 -35 -81 -27
-89 21 -21 73 86 170 352 16 45 25 56 50 62 59 16 89 86 61 141 -32 63 -111
77 -160 28z"/>
<path d="M1898 6450 c-4 -96 -11 -247 -17 -335 -5 -88 -12 -251 -15 -362 l-4
-202 41 -16 c84 -34 166 2 153 67 -10 52 -39 79 -93 86 l-48 7 1 245 c1 135 2
295 4 355 1 61 -2 160 -7 220 l-9 110 -6 -175z"/>
<path d="M9142 6263 c-48 -42 -29 -123 29 -123 63 0 90 70 44 115 -29 30 -46
31 -73 8z"/>
<path d="M1342 6193 c-16 -21 -65 -92 -110 -158 -44 -66 -100 -144 -123 -173
-23 -29 -39 -55 -36 -58 3 -3 31 27 62 68 251 326 273 358 246 358 -5 0 -23
-17 -39 -37z"/>
<path d="M1542 6198 c-6 -6 -32 -11 -58 -11 l-47 0 5 -254 5 -253 -175 2 -176
3 -11 43 c-23 98 -124 111 -170 22 -22 -43 -19 -62 19 -104 30 -32 40 -37 73
-34 29 2 42 10 57 33 l20 30 180 -3 c99 -2 181 -4 182 -5 1 -1 7 -63 13 -137
14 -162 65 -451 89 -500 15 -30 21 -35 51 -33 55 2 57 10 33 145 -20 113 -40
272 -57 455 l-7 72 129 4 128 3 -127 2 -128 2 0 83 c0 94 -12 441 -14 444 -1
2 -8 -3 -14 -9z"/>
<path d="M3900 6137 c-96 -27 -170 -100 -204 -200 -67 -198 83 -400 298 -400
119 0 221 66 282 184 58 111 27 250 -77 343 -77 69 -204 100 -299 73z m149
-133 c43 -9 99 -67 107 -110 22 -119 -44 -216 -147 -216 -92 1 -169 65 -184
153 -5 31 -2 50 17 87 37 75 109 105 207 86z"/>
<path d="M3952 5898 c-21 -21 -14 -65 14 -87 15 -12 33 -21 40 -21 22 0 54 38
54 64 0 44 -77 75 -108 44z"/>
<path d="M6723 6120 c-113 -57 -167 -145 -167 -270 1 -172 111 -294 278 -307
113 -9 241 62 300 167 28 49 31 64 31 135 -2 181 -111 292 -300 302 -74 4 -85
2 -142 -27z m199 -110 c42 -12 91 -63 108 -113 22 -69 -27 -174 -96 -203 -103
-43 -229 30 -241 140 -14 120 104 210 229 176z"/>
<path d="M6818 5904 c-7 -6 19 -62 40 -86 20 -24 49 -23 62 1 26 49 -3 91 -62
91 -19 0 -37 -3 -40 -6z"/>
<path d="M9155 5679 c-9 -27 0 -35 18 -17 11 11 12 16 1 26 -10 9 -14 7 -19
-9z"/>
<path d="M2148 5673 c28 -2 76 -2 105 0 28 2 5 3 -53 3 -58 0 -81 -1 -52 -3z"/>
<path d="M8721 5659 c-68 -13 -184 -72 -236 -120 -93 -86 -149 -223 -149 -369
-1 -141 43 -255 195 -510 90 -151 271 -424 284 -427 6 -1 22 17 36 40 14 23
57 92 96 152 172 273 289 492 324 605 43 142 23 307 -50 407 -38 51 -111 123
-125 123 -7 0 -27 13 -46 30 -40 36 -100 57 -200 70 -41 5 -77 9 -80 9 -3 -1
-25 -5 -49 -10z m225 -185 c50 -23 134 -107 159 -159 15 -30 20 -60 20 -126 0
-76 -4 -93 -33 -152 -56 -114 -154 -179 -280 -185 -66 -4 -79 -1 -138 28 -150
74 -221 250 -164 404 37 97 108 171 195 204 45 17 193 9 241 -14z"/>
<path d="M8720 5379 c-91 -41 -140 -112 -140 -204 0 -70 24 -119 85 -173 67
-59 136 -68 221 -28 56 26 118 91 135 144 6 19 9 61 7 93 -11 148 -166 233
-308 168z m-1 -159 c15 -21 39 -67 51 -101 27 -70 28 -70 80 31 35 69 68 106
82 92 7 -7 4 -21 -10 -44 -11 -18 -41 -68 -67 -110 -25 -43 -51 -78 -58 -78
-10 0 -127 224 -127 244 0 17 23 2 49 -34z"/>
<path d="M2070 5489 c44 -18 294 -69 310 -64 8 4 11 3 7 -1 -13 -13 104 -55
223 -80 63 -13 185 -31 270 -39 85 -9 232 -24 325 -35 94 -11 235 -27 315 -35
80 -8 189 -24 242 -36 54 -11 167 -31 252 -44 435 -68 832 -213 975 -356 55
-54 109 -146 122 -206 43 -193 -110 -429 -450 -694 -73 -57 -168 -131 -210
-163 -88 -69 -608 -418 -794 -533 -230 -142 -336 -198 -1148 -605 -1285 -642
-1401 -697 -1774 -843 -33 -13 -54 -24 -48 -24 17 -1 206 -114 253 -151 21
-17 40 -30 43 -30 3 0 52 26 109 59 57 32 200 109 318 171 118 62 244 130 280
150 36 21 241 126 455 235 215 109 464 236 555 283 91 47 242 124 335 171 94
47 190 98 215 112 148 87 291 164 400 219 69 35 193 102 275 150 83 48 197
111 254 140 57 28 120 62 140 74 46 29 170 76 199 76 12 0 22 -4 22 -10 0 -19
-167 -142 -310 -227 -372 -221 -494 -290 -730 -411 -118 -60 -250 -130 -293
-156 -43 -25 -180 -99 -305 -163 -125 -64 -319 -166 -432 -226 -113 -61 -257
-137 -320 -169 -178 -93 -294 -155 -435 -236 -71 -42 -193 -109 -270 -151
-148 -81 -315 -180 -315 -186 0 -6 108 -55 119 -55 5 0 36 -19 70 -41 l62 -41
52 32 c54 34 329 201 572 348 77 46 208 123 290 170 83 46 161 93 175 102 14
10 97 58 185 107 88 49 246 139 350 200 105 60 260 148 345 195 85 48 202 113
260 146 58 33 148 83 200 112 374 208 623 362 935 578 342 237 498 358 747
579 272 242 430 467 458 651 32 203 -75 404 -260 494 -219 106 -782 226 -1358
289 -53 6 -137 19 -187 30 -209 45 -576 70 -1225 84 -311 7 -447 16 -644 46
-143 21 -249 25 -206 8z m700 -74 c412 -19 921 -53 1050 -70 58 -8 143 -19
190 -25 259 -34 598 -98 760 -145 47 -13 108 -29 135 -35 124 -27 425 -132
481 -169 71 -45 175 -156 206 -220 30 -60 30 -161 0 -245 -64 -177 -266 -411
-616 -712 -179 -153 -247 -202 -372 -269 -193 -104 -255 -131 -240 -106 4 5 1
11 -6 13 -11 4 136 131 240 208 117 86 364 301 443 386 234 252 326 551 229
743 -37 74 -102 148 -170 191 -52 33 -115 56 -360 131 -143 44 -220 63 -480
119 -142 31 -666 93 -970 114 -394 29 -484 36 -580 48 -103 12 -163 34 -139
49 8 5 28 7 44 4 17 -2 86 -7 155 -10z m2888 -515 l14 -35 -22 20 c-12 11 -26
28 -32 38 -8 15 -6 18 8 15 10 -1 24 -19 32 -38z m60 -501 c4 -42 -54 -116
-75 -95 -10 9 49 127 61 123 6 -2 12 -14 14 -28z m-882 -826 c-42 -38 -113
-83 -131 -83 -14 0 -2 24 21 44 43 34 148 96 154 90 3 -3 -17 -26 -44 -51z"/>
<path d="M5292 4890 c9 -14 35 -59 56 -100 82 -156 79 -299 -12 -479 -39 -77
-27 -84 27 -16 54 69 100 172 124 277 31 138 -15 219 -182 324 l-30 19 17 -25z"/>
<path d="M1860 5440 c0 -38 -36 -146 -94 -284 -25 -59 -46 -120 -46 -134 0
-40 14 -16 55 93 20 55 59 146 86 201 27 56 49 109 49 117 0 21 -17 31 -23 15
-3 -8 -6 -6 -6 5 -2 30 -21 18 -21 -13z"/>
<path d="M4226 5390 c5 -5 30 -12 54 -14 25 -3 122 -12 215 -21 269 -26 718
-91 860 -126 72 -17 182 -47 245 -66 63 -20 173 -51 243 -69 70 -18 155 -48
188 -65 97 -52 236 -200 306 -326 27 -47 33 -69 33 -119 0 -209 -157 -481
-445 -769 -357 -357 -833 -693 -1646 -1160 -67 -38 -185 -108 -263 -154 -77
-46 -262 -153 -411 -238 -389 -224 -921 -537 -1120 -661 -66 -41 -156 -97
-200 -124 -126 -78 -535 -352 -535 -359 0 -3 71 -34 158 -69 86 -34 178 -76
205 -92 l47 -30 68 42 c37 23 117 79 177 125 161 120 283 204 542 376 414 274
562 367 1173 739 453 276 587 358 700 430 63 40 144 90 180 112 436 268 961
673 1217 941 181 191 371 458 434 609 67 164 64 340 -10 486 -60 119 -199 270
-291 317 -158 80 -616 176 -1070 225 -453 48 -1078 84 -1054 60z m2304 -975
c0 -34 -28 -103 -58 -143 -34 -46 -37 -35 -7 29 14 30 25 62 25 71 0 26 18 68
30 68 5 0 10 -11 10 -25z m-440 -654 c0 -11 -19 -36 -42 -55 -77 -66 -86 -35
-12 39 39 39 54 44 54 16z m-650 -571 c-16 -29 -163 -144 -228 -177 -52 -27
-53 -28 -68 -9 -13 18 -11 23 13 49 16 16 69 53 119 83 99 58 129 72 157 73
15 1 16 -2 7 -19z m-791 -517 c0 -7 -119 -71 -152 -82 -27 -10 18 30 67 59 49
28 87 38 85 23z m-304 -186 c-43 -29 -133 -77 -144 -77 -24 0 2 21 67 55 67
34 116 48 77 22z m-385 -239 c-81 -50 -110 -57 -75 -18 23 25 134 82 147 74 5
-3 -27 -28 -72 -56z m-250 -148 c0 -13 -98 -62 -110 -55 -19 11 -10 23 33 44
45 22 77 27 77 11z m-550 -339 c0 -12 -82 -62 -90 -55 -3 3 10 19 28 35 32 29
62 38 62 20z m-516 -290 c16 -18 13 -21 -87 -85 -57 -37 -112 -75 -122 -86
-18 -20 -18 -20 -33 1 -8 11 -11 23 -8 26 12 13 221 162 227 163 3 0 14 -8 23
-19z"/>
<path d="M2360 5276 c-19 -7 -91 -44 -160 -83 -69 -39 -140 -79 -159 -89 -19
-11 -44 -27 -55 -37 -12 -10 -66 -48 -121 -84 -55 -36 -104 -72 -109 -80 -6
-12 -12 -8 -27 16 -41 68 -164 54 -215 -25 -14 -21 -15 -33 -6 -72 l10 -47
-41 -38 c-23 -22 -58 -51 -77 -65 -64 -47 -249 -235 -353 -357 -56 -66 -146
-166 -201 -222 -55 -57 -97 -106 -93 -109 4 -4 9 1 13 10 3 9 11 16 16 16 5 0
0 -16 -12 -35 -12 -19 -17 -35 -11 -35 6 0 11 7 11 16 0 8 46 63 103 122 57
59 137 148 179 197 115 136 220 241 266 264 24 12 65 51 101 95 67 81 116 123
126 106 3 -6 20 -17 36 -25 40 -21 92 -10 135 27 30 27 34 36 34 82 0 47 3 53
28 63 27 12 202 120 327 204 39 26 117 72 175 104 58 31 111 63 118 70 21 19
1 25 -38 11z"/>
<path d="M2495 5241 c15 -63 82 -226 143 -351 226 -458 607 -893 1011 -1155
110 -71 315 -185 333 -185 6 0 25 11 43 24 18 14 46 31 64 38 l31 13 -132 70
c-476 251 -832 586 -1120 1055 -73 118 -165 306 -197 402 -12 34 -25 69 -30
77 -5 7 -41 19 -81 26 l-71 12 6 -26z"/>
<path d="M2756 5206 c3 -12 20 -52 36 -91 144 -332 386 -680 640 -920 124
-117 334 -274 488 -365 67 -40 268 -130 290 -130 8 0 40 22 71 48 54 46 97 79
201 154 171 122 356 295 423 396 93 138 106 246 43 363 -42 80 -109 133 -253
204 -155 76 -495 170 -740 205 -44 6 -138 22 -210 36 -181 34 -378 60 -633 84
-119 11 -250 24 -290 28 -70 8 -72 8 -66 -12z m839 -256 c10 -11 16 -20 13
-20 -3 0 -13 9 -23 20 -10 11 -16 20 -13 20 3 0 13 -9 23 -20z m91 -112 l29
-33 -32 29 c-31 28 -38 36 -30 36 2 0 16 -15 33 -32z m184 -78 c0 -5 8 -10 19
-10 36 0 56 -88 31 -135 -11 -21 -9 -29 25 -74 20 -28 32 -51 26 -51 -5 0 -24
20 -42 45 -36 50 -37 50 -74 33 -23 -10 -29 -8 -65 27 -33 32 -40 46 -40 78 0
44 34 83 78 90 15 2 30 5 35 6 4 0 7 -3 7 -9z m-139 -163 c-10 -9 -11 -8 -5 6
3 10 9 15 12 12 3 -3 0 -11 -7 -18z m776 17 c39 -8 67 -61 53 -99 -26 -69 -88
-86 -120 -32 -24 39 -25 68 -5 107 16 31 24 34 72 24z m-326 -385 c17 -33 -7
-21 -36 17 l-28 36 27 -17 c15 -10 31 -26 37 -36z m124 -171 c9 -16 15 -28 12
-28 -8 0 -77 105 -77 116 0 8 19 -19 65 -88z m116 -170 c17 -32 -5 -19 -24 14
-15 26 -15 29 -2 18 9 -7 21 -22 26 -32z"/>
<path d="M6596 5013 c-14 -15 -3 -35 50 -85 69 -66 147 -170 175 -233 33 -74
37 -190 10 -295 -74 -297 -392 -718 -806 -1070 -374 -317 -590 -471 -1190
-850 -349 -220 -441 -277 -505 -315 -517 -307 -1297 -815 -1657 -1080 -66 -50
-169 -124 -228 -165 l-106 -74 52 -18 c29 -10 83 -32 120 -49 l68 -31 68 48
c37 26 136 97 218 158 332 244 1185 817 1520 1021 300 182 993 638 1230 808
425 306 843 680 1037 927 265 337 377 618 347 864 -18 146 -139 317 -277 389
-83 44 -118 58 -126 50z"/>
<path d="M5920 4964 c0 -3 13 -23 28 -43 105 -134 141 -245 122 -367 -42 -260
-273 -568 -680 -907 -187 -156 -223 -185 -290 -232 -30 -22 -119 -84 -196
-140 -78 -55 -180 -127 -228 -160 -105 -73 -412 -260 -596 -363 -179 -99 -318
-183 -331 -198 -7 -9 -6 -20 3 -36 7 -13 14 -24 15 -26 2 -5 57 24 148 78 44
26 109 64 145 84 36 21 81 46 100 58 19 12 132 77 250 146 280 162 634 384
783 490 363 258 776 635 899 822 107 161 147 263 155 392 5 81 4 90 -24 150
-27 58 -41 73 -128 139 -158 120 -175 131 -175 113z"/>
<path d="M7795 4898 c-4 -29 -18 -87 -31 -128 -21 -65 -170 -442 -250 -630
-15 -36 -46 -121 -70 -190 -40 -118 -44 -125 -74 -133 -20 -5 -38 -20 -52 -42
l-20 -35 -130 0 -131 0 6 120 c4 94 2 120 -8 120 -20 0 -24 -31 -18 -139 l6
-100 -59 -4 -59 -3 57 -2 c68 -2 65 9 58 -197 l-5 -149 -32 -7 c-28 -6 -36 -1
-80 45 -27 28 -75 81 -107 119 -55 64 -76 80 -76 56 0 -17 91 -128 149 -182
l51 -48 -11 -40 c-10 -30 -9 -48 0 -80 l12 -41 -78 -72 c-43 -39 -90 -82 -104
-96 -15 -14 -32 -24 -39 -22 -7 3 -10 0 -7 -5 3 -5 2 -15 -3 -22 -6 -10 -45
24 -143 125 -130 132 -137 137 -161 126 -14 -6 -26 -19 -26 -29 0 -10 46 -64
103 -121 l102 -103 -24 -18 c-14 -11 -68 -37 -120 -59 -359 -151 -440 -185
-471 -197 -122 -47 -253 -104 -240 -105 33 0 387 133 716 270 172 71 194 74
194 22 0 -21 -26 -52 -120 -144 -66 -65 -138 -127 -159 -137 -21 -11 -41 -27
-45 -36 -3 -9 -45 -34 -93 -56 -49 -23 -134 -63 -190 -89 -90 -43 -103 -47
-120 -35 -10 8 -35 15 -55 15 -30 0 -48 9 -90 46 -67 58 -118 115 -118 133 0
9 -7 11 -22 7 -13 -3 -26 -6 -30 -6 -5 0 -8 -6 -8 -13 0 -16 45 -64 138 -146
40 -34 72 -67 72 -71 0 -22 -206 -83 -440 -129 -58 -12 -141 -28 -185 -37
-218 -44 -353 -94 -220 -81 248 24 600 96 749 153 l88 34 39 -35 c40 -36 50
-39 84 -25 17 7 34 -6 103 -73 45 -45 82 -86 82 -91 0 -8 -101 -3 -208 11 -75
9 -43 -6 52 -25 47 -9 87 -21 88 -27 0 -5 -13 -18 -31 -29 -39 -23 -269 -100
-371 -125 -41 -10 -118 -30 -170 -45 -219 -59 -313 -70 -610 -70 -151 -1 -324
3 -385 7 l-110 8 -54 -32 c-65 -37 -61 -42 60 -63 232 -40 696 -47 874 -13
157 30 610 150 706 187 30 12 97 41 150 67 l97 45 73 -50 c86 -59 149 -115
149 -132 0 -26 -348 -167 -575 -234 -300 -87 -435 -112 -786 -143 -62 -5 -69
-4 -103 22 -42 32 -94 36 -132 8 -71 -49 -73 -50 -117 -42 -23 4 -76 8 -117 9
-41 0 -130 7 -197 14 -98 11 -131 19 -167 40 -51 30 -70 32 -110 11 -35 -19
-89 -19 -141 0 -64 23 -87 19 -128 -23 -43 -44 -45 -52 -14 -52 47 0 216 -48
247 -70 38 -27 112 -38 144 -20 18 9 43 9 112 1 49 -7 161 -14 249 -18 l160
-6 44 -39 c34 -29 52 -38 80 -38 43 0 97 30 106 59 5 18 15 21 58 21 145 1
538 63 732 116 210 58 406 127 619 218 l199 85 20 -25 c11 -15 48 -49 82 -78
33 -28 121 -102 193 -164 l132 -114 -6 -51 c-4 -41 -1 -59 15 -84 43 -68 113
-78 171 -23 24 22 30 36 30 70 0 23 -4 50 -10 60 -8 15 14 41 150 170 126 120
164 151 181 147 30 -8 75 11 93 38 9 14 16 43 16 65 0 35 -4 43 -32 60 -47 28
-65 25 -109 -19 -42 -42 -49 -72 -24 -108 14 -19 13 -22 -12 -38 -15 -10 -86
-76 -159 -147 -116 -113 -133 -126 -145 -112 -10 12 -27 15 -70 12 l-56 -3
-208 184 c-172 152 -205 186 -193 196 7 7 58 38 113 68 182 99 505 316 559
376 21 23 46 28 46 10 0 -6 21 -33 48 -59 26 -26 91 -95 145 -153 89 -97 97
-109 97 -146 0 -47 25 -76 75 -85 70 -13 110 22 102 90 -6 59 -20 72 -87 81
-54 8 -55 9 -148 118 -51 61 -113 133 -138 160 l-45 50 68 59 c37 32 118 110
179 173 l111 113 17 -45 c28 -72 83 -92 155 -55 35 18 40 18 52 4 22 -27 113
-85 359 -228 129 -76 260 -153 292 -172 31 -19 79 -45 107 -58 29 -13 69 -44
92 -70 45 -50 83 -60 111 -28 9 9 75 134 147 277 148 293 163 338 142 439 -16
76 -71 177 -115 211 -86 65 -233 88 -331 51 -67 -25 -145 -93 -179 -156 -37
-69 -47 -184 -21 -262 22 -68 80 -190 144 -301 55 -95 56 -97 40 -97 -15 0
-499 278 -715 411 -70 43 -72 45 -78 91 -7 52 -38 85 -88 95 l-28 5 44 40 c47
41 247 284 338 410 65 90 111 148 118 148 11 0 40 -59 40 -81 0 -15 -36 -60
-113 -138 -114 -117 -265 -299 -293 -353 -8 -16 -14 -37 -12 -46 2 -10 32 26
77 93 48 70 122 157 211 248 127 131 137 139 157 126 17 -10 27 -10 47 -1 45
20 27 102 -23 102 -23 0 -71 51 -71 76 0 10 28 69 61 129 34 61 84 152 112
204 l50 94 35 -39 c61 -68 445 -455 448 -451 6 6 -141 173 -261 297 -67 69
-142 147 -167 173 l-47 49 46 96 c25 54 61 136 80 185 l36 87 -27 38 c-66 94
-57 96 -101 -25 -33 -92 -109 -270 -120 -282 -2 -2 -37 32 -78 75 -149 159
-217 242 -217 265 0 8 32 46 71 84 77 77 209 236 209 254 0 24 -24 8 -78 -51
-122 -133 -201 -212 -207 -207 -3 3 8 48 25 98 30 93 37 145 21 155 -4 3 -8
-7 -8 -22 -1 -33 -7 -59 -16 -68 -4 -4 -7 -19 -8 -33 0 -14 -5 -35 -10 -46 -8
-18 -9 -17 -6 6 3 22 1 25 -17 21 -12 -3 -25 -10 -29 -16 -5 -6 -6 2 -2 19 6
28 5 29 -8 10 -8 -11 -17 -33 -21 -48 -6 -24 -9 -27 -21 -17 -8 7 -15 16 -15
20 0 5 -34 71 -74 147 -41 76 -98 192 -126 258 -71 166 -84 178 -95 93z m74
-172 c27 -33 221 -414 221 -433 0 -31 -108 -306 -159 -408 -23 -44 -41 -85
-41 -91 0 -6 -9 -19 -21 -29 -18 -17 -39 -19 -212 -20 -184 0 -192 1 -195 20
-2 11 -11 28 -19 37 -13 15 -9 32 40 170 56 154 202 521 252 633 30 67 65 173
70 213 1 15 3 29 4 32 1 3 13 -21 26 -54 14 -32 29 -64 34 -70z m578 -823 c32
-51 34 -57 22 -86 -26 -64 -144 -275 -223 -400 -104 -165 -377 -525 -398 -526
-5 -1 -8 74 -8 166 0 91 -3 163 -7 159 -4 -4 -6 -84 -5 -178 l2 -172 -55 -53
c-30 -29 -61 -53 -68 -53 -22 0 -257 163 -257 178 0 4 36 52 81 107 44 55 137
187 206 293 69 105 130 192 134 192 5 0 9 4 9 9 0 5 38 88 85 184 46 97 101
220 121 274 20 54 40 102 44 107 9 9 23 -34 39 -120 6 -27 17 -80 26 -117 8
-37 17 -85 20 -105 4 -35 55 -186 61 -180 1 2 -2 23 -6 48 -14 72 -12 100 7
100 16 0 16 1 -1 13 -11 8 -25 52 -42 137 -14 69 -36 159 -49 201 -42 135 -30
135 107 -2 66 -67 135 -146 155 -176z m-1137 -198 c9 -24 -1 -39 -121 -180
-72 -85 -135 -155 -140 -155 -10 0 -13 343 -2 353 3 4 62 7 130 7 123 0 124 0
133 -25z m530 15 c0 -62 -418 -675 -475 -697 -7 -2 -60 30 -117 73 -164 122
-159 117 -146 154 9 26 8 39 -6 67 -9 19 -13 40 -9 47 5 8 46 54 93 104 48 49
101 112 120 139 34 49 35 50 77 45 38 -4 46 -1 75 29 l33 34 140 5 c77 3 157
6 178 8 20 1 37 -2 37 -8z m-845 -540 c4 -6 13 -5 24 2 16 10 27 5 72 -33 30
-25 89 -71 132 -103 42 -32 80 -62 83 -68 10 -16 -71 -111 -179 -208 -58 -52
-106 -101 -106 -107 -1 -7 -4 -13 -7 -13 -7 0 -160 153 -248 248 l-50 53 120
120 c111 111 144 134 159 109z m-191 -423 c75 -74 136 -138 136 -143 0 -54
-642 -478 -755 -499 -27 -5 -39 3 -126 87 -106 102 -127 142 -93 179 17 19 17
20 -2 13 -14 -5 -16 -4 -9 4 6 6 26 14 45 16 42 6 240 97 259 120 17 21 47 21
59 -1 9 -16 12 -16 36 0 16 11 26 27 26 41 0 18 30 52 113 129 61 58 126 124
142 146 17 22 30 41 31 41 1 0 63 -60 138 -133z m715 42 c66 -44 124 -86 130
-93 7 -9 -2 -26 -34 -63 -67 -77 -311 -283 -334 -283 -5 0 -52 48 -104 107
l-95 107 157 152 c86 84 157 153 158 154 2 0 57 -36 122 -81z m1483 9 c110
-75 132 -242 45 -337 -33 -36 -115 -71 -167 -71 -84 1 -171 62 -206 146 -32
76 -5 186 60 241 86 73 180 80 268 21z m-1915 -356 c74 -68 123 -127 123 -147
0 -17 -228 -189 -379 -285 -190 -121 -265 -158 -330 -161 -53 -3 -54 -2 -147
72 -51 40 -92 79 -90 84 1 6 63 43 137 83 167 92 349 212 499 331 63 50 115
91 115 91 0 0 32 -30 72 -68z"/>
<path d="M8015 3740 c-19 -5 10 -8 80 -8 84 0 100 2 70 9 -48 10 -109 9 -150
-1z"/>
<path d="M8262 4897 c-16 -45 -15 -68 3 -37 12 22 14 23 20 7 7 -17 0 -72 -12
-104 -4 -11 -2 -14 5 -9 7 4 12 4 12 -1 -1 -13 -24 -39 -42 -46 -14 -5 -16 -1
-11 31 3 20 3 35 0 32 -6 -6 -77 -244 -77 -260 0 -18 18 -11 25 10 3 11 9 19
13 19 31 -5 38 3 40 47 2 57 11 73 28 50 9 -12 14 -14 19 -5 12 18 45 151 45
180 0 40 -20 89 -37 89 -9 0 -13 6 -9 15 3 8 2 15 -2 15 -5 0 -13 -15 -20 -33z
m-6 -234 c-10 -10 -19 5 -10 18 6 11 8 11 12 0 2 -7 1 -15 -2 -18z"/>
<path d="M2510 4828 c0 -4 14 -8 30 -8 17 0 30 2 30 4 0 2 -13 6 -30 8 -16 3
-30 1 -30 -4z"/>
<path d="M2610 4685 c48 -90 170 -300 209 -359 14 -21 34 -50 43 -65 9 -14 21
-31 26 -37 6 -6 18 -26 27 -45 10 -19 37 -59 60 -89 23 -30 49 -69 58 -86 8
-16 35 -52 59 -80 24 -27 60 -71 80 -99 41 -56 118 -134 118 -119 0 5 -16 24
-35 42 -46 44 -128 152 -129 172 -1 8 -10 20 -20 25 -25 13 -185 254 -366 549
-162 266 -191 308 -130 191z"/>
<path d="M1686 4673 c-37 -15 -38 -17 -32 -53 10 -67 88 -254 116 -280 15 -14
45 -42 67 -62 25 -22 57 -68 79 -113 33 -66 39 -89 44 -169 l6 -92 126 -190
c184 -275 435 -578 619 -743 l71 -64 56 27 55 27 -28 19 c-41 27 -135 121
-135 135 0 6 16 26 35 45 19 18 33 36 30 38 -6 6 -69 -48 -76 -66 -10 -27
-304 308 -462 528 -197 275 -270 412 -442 833 -40 98 -77 182 -81 187 -5 5
-26 1 -48 -7z"/>
<path d="M1480 4287 c-84 -31 -163 -104 -194 -178 -43 -105 -27 -199 64 -377
67 -131 190 -334 205 -339 25 -7 255 358 299 475 51 133 34 241 -52 334 -60
64 -121 92 -212 95 -44 2 -89 -2 -110 -10z m164 -108 c132 -49 174 -204 85
-312 -39 -47 -85 -67 -157 -67 -51 0 -67 5 -108 33 -95 64 -120 173 -59 265
30 45 58 67 113 87 51 19 63 18 126 -6z"/>
<path d="M2473 4029 c3 -8 12 -33 19 -56 7 -24 18 -43 25 -43 27 0 9 57 -30
94 -11 11 -17 14 -14 5z"/>
<path d="M2393 3933 c9 -2 25 -2 35 0 9 3 1 5 -18 5 -19 0 -27 -2 -17 -5z"/>
<path d="M1836 3665 c-14 -37 -4 -93 37 -219 24 -72 64 -193 87 -270 40 -124
59 -160 77 -143 16 17 -154 608 -184 638 -7 7 -12 5 -17 -6z"/>
<path d="M3104 3594 c-31 -15 -54 -50 -54 -80 0 -22 50 -64 76 -64 44 0 104
31 110 56 13 50 -32 104 -84 104 -9 0 -31 -7 -48 -16z"/>
<path d="M9067 3305 c6 -11 11 -24 11 -28 0 -5 16 -26 35 -48 24 -26 37 -34
40 -25 3 7 -17 38 -45 67 -28 30 -46 45 -41 34z"/>
<path d="M6501 3276 c2 -2 40 -6 84 -9 48 -3 70 -2 55 3 -24 8 -148 14 -139 6z"/>
<path d="M6768 3243 c7 -3 16 -2 19 1 4 3 -2 6 -13 5 -11 0 -14 -3 -6 -6z"/>
<path d="M1950 2992 c-82 -83 -16 -215 99 -199 52 7 78 28 93 78 32 109 -112
200 -192 121z"/>
<path d="M7739 2483 c-13 -16 -12 -17 4 -4 9 7 17 15 17 17 0 8 -8 3 -21 -13z"/>
<path d="M3518 2445 c-71 -48 -89 -66 -69 -73 7 -2 20 -12 30 -23 14 -15 23
-17 53 -9 41 12 144 77 173 110 l20 23 -22 -7 c-13 -4 -34 -1 -52 8 -45 24
-60 20 -133 -29z"/>
<path d="M7689 2443 c-13 -16 -12 -17 4 -4 16 13 21 21 13 21 -2 0 -10 -8 -17
-17z"/>
<path d="M5798 2103 c7 -3 16 -2 19 1 4 3 -2 6 -13 5 -11 0 -14 -3 -6 -6z"/>
<path d="M2860 2051 c-25 -9 -64 -29 -87 -44 l-42 -27 17 -30 c9 -16 21 -30
25 -30 11 0 104 47 154 79 45 28 54 42 26 39 -39 -3 -52 2 -47 17 7 18 10 18
-46 -4z"/>
</g>
</svg>
