<?xml version="1.0" standalone="no"?>
<!DOCTYPE svg PUBLIC "-//W3C//DTD SVG 20010904//EN"
 "http://www.w3.org/TR/2001/REC-SVG-20010904/DTD/svg10.dtd">
<svg version="1.0" xmlns="http://www.w3.org/2000/svg"
 width="712.000000pt" height="706.000000pt" viewBox="0 0 712.000000 706.000000"
 preserveAspectRatio="xMidYMid meet">

<g transform="translate(0.000000,706.000000) scale(0.100000,-0.100000)"
fill="#000000" stroke="none">
<path d="M3483 6791 c-17 -11 -34 -28 -37 -38 -5 -15 -29 -21 -148 -37 -196
-26 -325 -50 -443 -82 -55 -15 -118 -28 -140 -29 -68 -3 -71 -4 -97 -28 -14
-13 -54 -34 -89 -47 -100 -37 -289 -128 -289 -139 0 -5 5 -13 10 -16 10 -6
291 112 338 141 19 13 26 12 52 -1 35 -18 65 -8 75 26 4 11 16 24 28 28 35 13
314 69 402 81 44 5 121 17 170 25 50 8 97 16 107 17 9 2 26 -12 40 -32 42 -62
110 -59 144 7 16 30 24 39 36 32 8 -4 55 -13 104 -19 49 -6 96 -13 104 -15 8
-3 47 -9 86 -15 89 -12 335 -71 434 -104 41 -13 89 -27 107 -31 25 -5 33 -13
38 -36 9 -40 49 -69 95 -69 36 0 48 -10 226 -193 104 -106 225 -223 269 -260
44 -37 112 -95 151 -128 79 -66 175 -175 249 -284 27 -38 46 -62 42 -52 -13
35 10 15 63 -54 29 -39 76 -106 104 -149 74 -115 80 -122 45 -53 -17 35 -62
102 -99 150 -38 49 -98 132 -135 186 -63 91 -68 104 -79 177 -6 43 -14 82 -19
86 -10 11 -8 -23 7 -93 7 -35 12 -63 11 -63 -2 0 -34 30 -72 68 -78 76 -264
249 -398 369 -79 71 -189 182 -279 280 -33 37 -27 66 8 35 11 -10 83 -51 160
-90 144 -75 313 -181 453 -286 60 -45 82 -67 83 -84 0 -44 28 -81 69 -92 21
-5 46 -7 55 -4 9 3 16 1 16 -5 0 -6 33 -48 73 -93 97 -111 171 -212 244 -333
133 -222 174 -310 257 -560 109 -328 88 -331 -129 -20 -54 77 -95 133 -93 125
6 -17 154 -243 217 -333 47 -66 47 -63 -22 -156 l-40 -54 -21 25 c-12 14 -27
34 -34 44 -7 10 -3 1 9 -22 l21 -41 -21 -34 c-12 -19 -21 -45 -21 -58 0 -27
-42 -70 -153 -155 -72 -54 -130 -116 -110 -116 33 0 286 227 278 249 -5 12 -2
11 13 -2 10 -9 25 -17 34 -17 37 0 64 70 37 97 -9 9 1 27 36 72 26 34 52 61
57 61 24 0 58 -174 58 -300 l0 -41 -61 70 c-34 39 -66 71 -72 71 -26 0 11 -62
73 -121 l70 -66 0 -56 c0 -79 5 -87 54 -87 l41 0 -7 142 c-4 79 -14 192 -23
251 -9 60 -13 128 -10 150 5 34 2 49 -18 78 -13 20 -27 53 -31 75 -13 74 -66
249 -110 365 -102 268 -307 599 -482 777 -52 54 -70 79 -67 93 15 55 -51 115
-116 106 -35 -4 -41 -1 -90 49 -29 30 -114 94 -187 143 -128 86 -399 231 -455
245 -19 4 -28 14 -33 36 -3 17 -17 42 -32 56 -21 22 -32 26 -66 21 -22 -3 -50
-15 -62 -26 l-22 -20 -59 24 c-73 29 -249 77 -365 98 -104 20 -340 48 -421 50
-37 1 -59 6 -59 14 0 18 -59 63 -83 63 -12 0 -36 -9 -54 -19z"/>
<path d="M1455 6623 c-39 -20 -84 -62 -99 -93 -46 -91 -13 -206 126 -438 40
-66 53 -81 63 -72 23 19 150 241 178 312 38 95 33 171 -16 226 -25 27 -37 28
-37 2 0 -11 -6 -20 -13 -20 -9 0 -12 12 -9 38 2 27 1 33 -7 22 -5 -8 -8 -17
-5 -21 2 -4 -1 -11 -7 -14 -7 -5 -1 -18 17 -36 22 -23 29 -41 32 -87 4 -57 3
-60 -35 -100 -36 -38 -45 -42 -88 -42 -156 0 -201 198 -60 261 25 11 55 19 67
18 38 -3 58 0 58 11 0 5 -7 7 -15 4 -8 -4 -15 -1 -15 6 0 6 -5 8 -12 4 -8 -5
-9 0 -6 14 6 20 2 22 -40 22 -26 -1 -60 -8 -77 -17z"/>
<path d="M1534 6503 c4 -5 12 -9 17 -9 5 -1 13 -2 18 -3 5 0 11 -13 14 -28 3
-16 13 -37 21 -48 15 -19 15 -19 16 7 0 40 -9 57 -41 73 -30 16 -58 20 -45 8z"/>
<path d="M1485 6480 c-3 -5 -2 -10 4 -10 5 0 13 5 16 10 3 6 2 10 -4 10 -5 0
-13 -4 -16 -10z"/>
<path d="M3350 6463 c-94 -8 -280 -44 -400 -77 -609 -167 -1063 -557 -1337
-1151 -61 -132 -130 -333 -157 -460 -50 -233 -60 -491 -26 -711 10 -71 20
-147 22 -169 l3 -40 58 -3 c53 -3 58 -1 53 15 -3 10 -15 74 -28 143 -18 105
-22 161 -22 350 1 203 3 237 27 355 81 398 237 706 521 1029 184 209 490 411
772 509 126 44 339 92 474 108 119 13 467 7 570 -10 196 -34 359 -86 535 -171
675 -328 1111 -959 1174 -1700 12 -139 -4 -386 -34 -535 -59 -287 -176 -553
-352 -797 -68 -94 -105 -128 -140 -128 -22 0 -24 3 -18 27 3 15 21 44 39 64
71 78 203 295 265 436 90 206 142 420 161 667 29 376 -64 771 -259 1100 -181
307 -482 592 -796 754 -153 78 -292 134 -320 127 -11 -3 -13 -2 -6 2 9 3 -6
11 -38 20 -29 7 -58 10 -63 6 -6 -3 -8 -1 -5 4 8 13 -48 25 -123 25 -42 0 -48
2 -25 7 44 9 -238 36 -350 32 -335 -10 -617 -76 -878 -207 -207 -103 -319
-183 -466 -334 -246 -252 -418 -532 -513 -838 -53 -172 -70 -289 -75 -513 -5
-210 -3 -243 30 -469 l13 -85 69 -6 c116 -11 745 -22 745 -14 0 4 -18 27 -39
50 -22 24 -47 65 -57 92 l-18 50 -69 11 c-83 13 -138 47 -179 112 l-29 45 3
661 3 661 34 51 c64 92 15 86 771 92 584 4 665 7 661 20 -6 24 -14 385 -8 380
2 -3 8 -72 11 -155 4 -82 12 -171 18 -197 l12 -48 110 0 c61 0 127 3 148 6
l36 6 -54 90 c-30 49 -54 91 -54 93 0 3 -28 61 -62 130 -33 69 -58 128 -55
131 3 3 33 -47 66 -112 85 -170 122 -237 158 -288 27 -38 38 -46 76 -51 50 -8
142 -63 172 -103 20 -26 20 -43 20 -725 l0 -698 23 -6 c12 -3 88 -3 168 -1
148 5 163 10 164 47 0 29 65 134 101 162 70 55 124 72 224 71 55 0 107 -7 134
-16 90 -33 174 -125 201 -221 l13 -46 41 7 c23 3 42 7 43 8 1 1 3 84 5 184 l3
182 -30 24 c-16 14 -73 48 -126 75 l-96 51 -400 0 -400 0 -5 113 c-10 205 -4
475 10 489 10 10 54 13 170 13 223 0 215 5 437 -260 78 -93 161 -188 183 -210
23 -21 99 -74 169 -116 76 -45 140 -91 158 -114 l30 -37 3 -201 c3 -219 0
-233 -51 -271 -20 -15 -49 -22 -99 -26 l-70 -5 -20 -52 c-26 -71 -103 -154
-170 -183 -59 -26 -146 -31 -214 -12 -96 27 -180 113 -207 210 l-11 42 -766 0
-765 0 -18 -49 c-9 -27 -36 -73 -58 -101 -22 -28 -39 -54 -36 -56 2 -3 96 -11
208 -19 531 -37 639 -46 699 -55 36 -6 117 -17 180 -26 240 -32 571 -121 715
-192 76 -37 172 -104 195 -136 8 -11 36 -44 62 -73 26 -29 54 -65 62 -81 26
-50 52 -174 45 -212 -11 -53 -45 -169 -65 -222 -10 -26 -15 -50 -11 -54 28
-28 271 230 400 426 52 80 158 291 207 415 79 199 133 501 132 740 0 342 -82
667 -248 983 -104 199 -193 320 -374 506 -188 194 -361 320 -595 431 -206 99
-329 138 -584 186 -102 18 -428 32 -541 22z m620 -233 c0 -5 -22 -10 -50 -10
-27 0 -50 5 -50 10 0 6 23 10 50 10 28 0 50 -4 50 -10z m-460 -314 c0 -14 -31
-46 -45 -46 -7 0 -20 11 -29 25 -15 23 -15 28 0 56 l16 31 29 -28 c16 -15 29
-32 29 -38z m450 11 c0 -17 -20 -37 -37 -37 -7 0 -17 9 -23 19 -14 28 13 55
41 41 10 -6 19 -16 19 -23z m-835 -7 c11 -17 -5 -50 -25 -50 -22 0 -30 19 -18
43 10 19 33 23 43 7z m1735 -430 c0 -6 12 -22 26 -35 20 -19 23 -25 11 -25 -9
0 -23 -13 -32 -30 -19 -36 -30 -38 -46 -7 -7 12 -19 27 -28 34 -15 11 -15 12
0 13 10 0 19 12 23 30 4 21 11 30 26 30 11 0 20 -5 20 -10z m-406 -51 c6 -5
10 -30 10 -56 l1 -48 -142 -3 -143 -3 0 60 0 60 43 4 c61 6 220 -4 231 -14z
m16 -869 l0 -40 40 0 40 0 0 -45 0 -45 -40 0 -40 0 0 -46 0 -45 -42 3 c-43 3
-43 3 -46 46 l-3 42 -45 0 -44 0 0 46 0 47 45 -6 45 -7 0 45 0 45 45 0 45 0 0
-40z m-2600 -85 c5 -14 16 -25 24 -25 11 0 8 -7 -9 -25 -14 -13 -25 -29 -25
-35 0 -5 -7 -10 -15 -10 -8 0 -15 7 -15 15 0 8 -9 19 -20 25 -23 13 -26 30 -5
30 8 0 17 11 21 25 3 14 13 25 20 25 8 0 19 -11 24 -25z"/>
<path d="M1475 6420 c-3 -5 -1 -10 4 -10 6 0 11 5 11 10 0 6 -2 10 -4 10 -3 0
-8 -4 -11 -10z"/>
<path d="M2075 6397 c-27 -27 -35 -43 -35 -71 0 -26 -4 -36 -15 -36 -38 0
-295 -184 -412 -293 -53 -50 -56 -59 -24 -77 16 -8 40 7 137 86 66 53 153 119
194 147 41 28 91 63 111 78 35 28 38 28 68 13 69 -34 140 25 126 106 -8 46
-31 69 -78 77 -32 5 -41 1 -72 -30z"/>
<path d="M2026 6178 c-20 -35 -58 -91 -84 -125 -111 -147 -210 -273 -273 -348
-68 -82 -96 -129 -124 -207 -30 -80 -27 -84 8 -10 50 105 79 146 237 337 236
285 305 384 283 406 -6 6 -23 -12 -47 -53z"/>
<path d="M1473 5940 c-28 -11 -43 -40 -43 -82 0 -51 21 -73 68 -73 54 0 82 26
82 77 0 36 -26 78 -49 78 -5 0 -15 2 -23 4 -7 3 -23 1 -35 -4z"/>
<path d="M1379 5763 c-71 -77 -153 -183 -225 -292 l-67 -103 20 -26 c10 -14
23 -27 29 -28 5 -2 29 29 53 68 24 39 95 138 158 221 62 83 113 156 113 162 0
7 -8 19 -18 29 -18 15 -21 14 -63 -31z"/>
<path d="M6226 5695 c-47 -44 -24 -114 44 -129 67 -16 106 98 47 139 -31 22
-60 19 -91 -10z"/>
<path d="M1501 5647 c-1 -17 -74 -227 -110 -317 -10 -25 -22 -58 -25 -75 -11
-47 9 -18 32 45 11 30 36 94 56 142 36 86 62 189 52 211 -2 7 -5 4 -5 -6z"/>
<path d="M2211 5537 c-51 -30 -50 -17 -51 -699 0 -437 3 -645 11 -661 15 -34
60 -57 111 -57 l45 0 13 57 c10 45 22 67 63 110 73 77 141 108 242 108 67 0
90 -5 143 -29 78 -36 142 -104 173 -184 l22 -57 111 2 c61 1 285 2 499 3 373
0 388 1 407 20 19 19 20 33 20 493 -1 399 -3 475 -15 491 -9 12 -15 43 -15 80
0 34 -5 68 -10 76 -5 8 -10 11 -10 5 0 -5 -5 -3 -10 5 -7 11 -10 11 -10 2 0
-10 -11 -12 -45 -6 l-45 6 10 -26 c5 -15 10 -32 10 -37 0 -16 -133 -7 -138 10
-3 10 0 12 12 8 9 -4 16 -2 16 2 0 5 3 17 7 26 5 15 0 17 -40 14 l-45 -4 3 55
c2 42 -1 60 -16 78 -10 14 -19 20 -19 13 0 -6 -9 -11 -20 -11 -10 0 -23 -7
-28 -16 -26 -47 -322 -45 -322 3 0 7 -4 13 -9 13 -8 0 -16 -165 -16 -307 0 -2
219 131 245 150 26 18 65 24 55 7 -3 -5 -1 -10 4 -10 6 0 11 -9 11 -20 0 -18
79 -179 102 -207 6 -7 14 -11 18 -8 5 3 6 -3 3 -12 -3 -10 -50 -40 -106 -68
-55 -27 -113 -58 -130 -68 l-29 -18 93 -56 c52 -31 109 -63 127 -71 37 -18 39
-24 14 -60 -10 -15 -42 -67 -70 -117 -28 -49 -55 -96 -60 -103 -6 -9 -42 7
-138 63 l-129 76 -3 -161 -2 -161 -143 3 -142 3 -3 158 -3 158 -42 -24 c-23
-14 -78 -44 -122 -67 -44 -23 -88 -49 -97 -57 -15 -14 -19 -9 -47 49 -17 34
-51 97 -75 138 -51 86 -52 83 43 126 76 34 172 94 166 104 -3 4 -58 38 -122
76 -65 37 -120 69 -122 71 -4 3 113 246 127 263 2 2 18 -4 35 -14 18 -10 56
-32 86 -48 29 -17 75 -43 101 -58 l47 -28 6 139 c7 155 2 200 -24 206 -14 4
-16 10 -9 34 l9 29 -167 0 c-92 0 -250 3 -352 6 -149 4 -190 2 -209 -9z m209
-102 c0 -32 3 -35 29 -35 22 0 30 -6 35 -25 4 -14 4 -36 0 -50 -5 -19 -13 -25
-35 -25 -26 0 -29 -3 -29 -35 0 -38 -11 -42 -79 -29 -26 6 -31 11 -31 36 0 23
-4 29 -16 24 -33 -13 -54 12 -54 64 l0 50 35 0 c32 0 35 2 35 30 0 30 1 30 55
30 l55 0 0 -35z m1241 -245 c19 0 29 -5 29 -15 0 -8 -8 -15 -17 -15 -14 0 -15
-2 -5 -9 11 -6 10 -10 -3 -15 -23 -9 -45 21 -44 59 1 17 3 22 6 13 3 -12 14
-18 34 -18z"/>
<path d="M3875 5540 c-29 -7 -29 -8 10 -9 22 0 47 4 55 9 12 8 10 9 -10 9 -14
-1 -38 -5 -55 -9z"/>
<path d="M3028 5533 c7 -3 16 -2 19 1 4 3 -2 6 -13 5 -11 0 -14 -3 -6 -6z"/>
<path d="M3203 5533 c15 -2 39 -2 55 0 15 2 2 4 -28 4 -30 0 -43 -2 -27 -4z"/>
<path d="M3328 5533 c7 -3 16 -2 19 1 4 3 -2 6 -13 5 -11 0 -14 -3 -6 -6z"/>
<path d="M3960 5536 c0 -2 7 -7 16 -10 8 -3 12 -2 9 4 -6 10 -25 14 -25 6z"/>
<path d="M3808 5473 c6 -2 18 -2 25 0 6 3 1 5 -13 5 -14 0 -19 -2 -12 -5z"/>
<path d="M5560 5451 c7 -13 27 -67 45 -120 85 -245 113 -323 124 -334 21 -21
11 25 -23 113 -19 47 -57 143 -85 214 -28 72 -56 135 -62 140 -8 7 -7 3 1 -13z"/>
<path d="M3018 5453 c7 -3 16 -2 19 1 4 3 -2 6 -13 5 -11 0 -14 -3 -6 -6z"/>
<path d="M3877 5450 c8 -9 9 -19 2 -32 -11 -20 3 -23 51 -9 l25 7 -22 8 c-13
4 -23 12 -23 18 0 6 -3 8 -7 5 -3 -4 -13 -1 -22 5 -13 10 -14 10 -4 -2z"/>
<path d="M673 5406 c-61 -20 -107 -51 -157 -107 -82 -91 -108 -222 -67 -340
38 -113 224 -451 292 -532 23 -27 29 -30 42 -18 54 44 278 417 323 538 22 58
25 80 22 148 -3 67 -10 90 -37 143 -37 69 -114 147 -137 138 -8 -3 -14 -2 -14
3 0 32 -192 52 -267 27z m190 -122 c117 -40 176 -170 128 -280 -39 -87 -91
-128 -177 -139 -68 -9 -127 9 -176 53 -152 137 -65 377 138 381 22 1 62 -6 87
-15z"/>
<path d="M877 5152 c-14 -15 -37 -21 -108 -26 -131 -10 -157 -32 -120 -104 22
-43 71 -79 111 -83 63 -6 83 1 126 45 40 40 44 48 44 94 0 33 -6 57 -18 72
-17 21 -18 21 -35 2z"/>
<path d="M4013 5350 c0 -41 2 -58 4 -37 2 20 2 54 0 75 -2 20 -4 3 -4 -38z"/>
<path d="M3097 5354 c-4 -4 -7 -18 -7 -30 0 -17 -7 -23 -27 -26 -38 -4 -62
-44 -69 -113 -8 -76 8 -136 47 -178 l29 -32 -6 121 c-5 89 -4 123 5 129 7 4
15 5 18 2 3 -3 6 -90 8 -194 l2 -188 -28 -39 c-31 -43 -36 -82 -18 -135 17
-49 39 -40 39 17 0 28 6 56 15 68 14 18 15 16 8 -21 -11 -58 -7 -365 5 -377 6
-6 16 -1 29 16 19 23 20 37 16 220 l-5 196 32 39 c56 72 59 110 12 164 -24 27
-30 21 -25 -25 3 -29 0 -50 -10 -63 -14 -18 -15 4 -14 215 l2 235 -25 3 c-14
2 -29 0 -33 -4z"/>
<path d="M4011 5234 c0 -11 3 -14 6 -6 3 7 2 16 -1 19 -3 4 -6 -2 -5 -13z"/>
<path d="M1344 5183 c-25 -59 -52 -154 -58 -203 -5 -43 -5 -44 5 -10 5 19 21
71 35 115 38 118 43 135 38 135 -2 0 -11 -17 -20 -37z"/>
<path d="M1383 5127 c-74 -172 -103 -231 -104 -212 -1 11 -7 -2 -14 -30 -7
-27 -26 -97 -43 -155 -32 -110 -48 -178 -39 -170 4 4 54 151 108 320 7 19 29
72 51 117 39 81 81 194 75 199 -2 2 -17 -29 -34 -69z"/>
<path d="M4280 4971 c0 -173 2 -200 17 -212 13 -11 69 -13 292 -11 152 2 278
6 280 8 4 4 -224 290 -278 347 -56 60 -76 67 -201 67 l-110 0 0 -199z"/>
<path d="M6356 5108 c-28 -44 -21 -99 14 -118 17 -9 15 -17 -29 -127 -26 -65
-56 -133 -65 -151 -21 -41 -12 -56 14 -24 18 22 92 203 106 257 4 16 18 31 39
40 58 24 69 81 25 125 -28 28 -85 27 -104 -2z"/>
<path d="M1082 4561 c-1 -52 -6 -156 -12 -230 -5 -75 -11 -212 -13 -304 l-5
-168 25 -10 c37 -14 90 -11 107 7 37 37 -2 104 -61 104 l-36 0 5 268 c2 147 1
303 -2 347 l-7 80 -1 -94z"/>
<path d="M6530 4390 c-26 -26 -25 -52 1 -76 19 -17 23 -17 47 -3 34 19 39 52
13 78 -26 26 -36 26 -61 1z"/>
<path d="M647 4323 c-18 -27 -53 -77 -77 -113 -24 -36 -59 -84 -78 -108 -19
-23 -33 -44 -31 -47 4 -4 216 271 233 303 4 6 3 12 -3 12 -5 0 -25 -21 -44
-47z"/>
<path d="M778 4343 l-38 -4 0 -207 c0 -224 9 -331 41 -517 24 -144 35 -169 72
-173 38 -5 42 14 23 121 -29 165 -48 380 -33 389 9 6 9 8 0 8 -10 0 -13 46
-13 195 0 107 -3 194 -7 193 -5 -1 -25 -3 -45 -5z"/>
<path d="M2580 4298 c-111 -31 -183 -167 -150 -284 17 -59 92 -138 146 -153
95 -26 197 -1 250 61 92 110 85 233 -20 325 -64 56 -144 75 -226 51z m154
-113 c81 -54 51 -209 -44 -230 -75 -16 -160 52 -160 129 0 100 117 157 204
101z"/>
<path d="M2624 4104 c-9 -34 28 -74 53 -58 32 20 39 41 19 63 -27 30 -64 27
-72 -5z"/>
<path d="M4712 4289 c-95 -47 -142 -144 -122 -251 20 -102 98 -174 203 -185
44 -4 63 -1 110 21 131 63 179 193 116 318 -52 101 -201 149 -307 97z m186
-104 c63 -53 66 -128 8 -190 -28 -29 -40 -35 -75 -35 -110 0 -176 102 -124
191 36 61 138 79 191 34z"/>
<path d="M4786 4122 c-9 -15 34 -74 51 -70 30 6 39 35 19 57 -19 21 -60 28
-70 13z"/>
<path d="M351 4024 c-29 -37 -26 -65 8 -98 35 -34 71 -30 97 9 17 27 14 76 -7
102 -20 23 -75 16 -98 -13z"/>
<path d="M498 3953 c12 -2 32 -2 45 0 12 2 2 4 -23 4 -25 0 -35 -2 -22 -4z"/>
<path d="M1303 3953 c9 -2 25 -2 35 0 9 3 1 5 -18 5 -19 0 -27 -2 -17 -5z"/>
<path d="M6540 3950 c0 -5 5 -10 10 -10 6 0 10 5 10 10 0 6 -4 10 -10 10 -5 0
-10 -4 -10 -10z"/>
<path d="M6179 3927 c-151 -52 -234 -155 -254 -318 -14 -116 57 -285 234 -558
99 -152 126 -189 135 -180 48 52 298 485 327 566 31 84 31 211 1 277 -28 62
-81 127 -118 146 -16 8 -38 23 -49 33 -22 20 -95 42 -165 51 -32 4 -64 -1
-111 -17z m207 -123 c52 -25 120 -106 133 -159 40 -159 -97 -325 -260 -313
-129 9 -231 137 -216 271 11 88 80 180 157 210 33 12 153 7 186 -9z"/>
<path d="M6237 3740 c-40 -12 -94 -56 -112 -90 -21 -40 -19 -103 5 -150 63
-124 235 -117 301 13 65 127 -55 268 -194 227z m6 -182 l33 -70 32 60 c32 60
58 90 68 79 8 -8 3 -18 -49 -101 -24 -39 -48 -71 -54 -73 -6 -2 -18 14 -27 37
-9 22 -27 58 -41 80 -28 45 -33 72 -10 64 8 -4 30 -38 48 -76z"/>
<path d="M1202 3815 c9 -9 230 -55 239 -49 5 3 9 1 9 -4 0 -26 262 -82 455
-97 44 -3 132 -12 195 -20 63 -7 160 -19 215 -25 55 -6 143 -20 195 -30 52
-10 142 -26 200 -35 109 -18 199 -39 323 -76 443 -131 576 -344 384 -611 -61
-85 -145 -164 -317 -299 -152 -119 -682 -476 -842 -567 -99 -55 -1232 -624
-1603 -804 -121 -58 -280 -130 -353 -159 l-133 -52 92 -56 c50 -31 100 -62
112 -70 20 -12 35 -6 167 66 237 131 469 253 745 393 709 361 904 462 940 490
6 4 78 43 160 85 83 43 191 102 240 130 167 98 387 205 417 205 27 0 29 -2 17
-16 -53 -64 -415 -284 -754 -459 -93 -48 -199 -105 -235 -125 -36 -21 -137
-75 -225 -120 -237 -122 -381 -198 -465 -245 -41 -23 -116 -62 -165 -87 -50
-25 -126 -66 -170 -90 -286 -160 -417 -234 -479 -270 l-70 -41 75 -36 c41 -20
84 -43 96 -51 27 -17 28 -17 243 116 188 117 536 322 785 464 61 34 193 110
295 168 102 57 277 156 390 220 338 189 478 271 630 370 648 422 1039 779
1107 1011 24 83 19 180 -11 247 -54 117 -119 169 -284 226 -157 53 -511 125
-787 158 -93 11 -215 29 -270 40 -55 10 -116 21 -135 24 -60 10 -573 35 -835
42 -155 4 -303 13 -390 25 -137 19 -213 24 -203 14z m668 -65 c264 -13 642
-38 662 -44 7 -3 33 -7 58 -10 25 -3 65 -8 90 -11 373 -47 902 -183 1030 -265
62 -40 143 -134 160 -186 26 -78 -10 -197 -97 -318 -59 -82 -257 -279 -403
-400 -167 -139 -170 -141 -308 -211 -89 -46 -115 -56 -125 -46 -9 10 -9 15 3
24 264 201 486 398 564 500 87 114 146 261 146 364 0 100 -83 229 -180 278
-26 13 -114 45 -196 71 -335 105 -631 153 -1229 198 -354 27 -422 34 -448 48
-25 13 -11 28 21 23 15 -3 128 -9 252 -15z m2045 -398 c-6 -7 -34 29 -34 43 0
6 9 -1 20 -14 11 -13 17 -26 14 -29z m45 -361 c0 -25 -42 -75 -58 -70 -8 3 -4
18 10 47 23 44 48 56 48 23z m-650 -605 c-14 -18 -100 -76 -112 -76 -23 0 -1
25 54 60 60 39 83 45 58 16z"/>
<path d="M3678 3283 c43 -86 44 -90 40 -168 -3 -59 -11 -97 -31 -145 -16 -36
-31 -72 -34 -80 -3 -8 8 -2 24 13 40 37 92 151 106 230 14 86 -9 139 -87 196
-30 23 -57 41 -59 41 -2 0 17 -39 41 -87z"/>
<path d="M1047 3756 c-4 -24 -29 -99 -56 -167 -27 -67 -47 -127 -44 -133 4 -5
17 19 30 55 13 35 45 108 70 161 38 81 44 100 33 113 -20 24 -27 18 -33 -29z"/>
<path d="M2935 3725 c55 -7 150 -19 210 -25 104 -10 360 -45 415 -56 98 -20
262 -62 350 -89 58 -18 130 -38 160 -45 85 -19 155 -56 212 -113 106 -105 168
-202 168 -265 0 -181 -177 -446 -469 -701 -306 -267 -460 -370 -1281 -853
-107 -63 -249 -146 -315 -183 -600 -337 -1430 -854 -1408 -876 4 -4 60 -29
123 -54 63 -26 129 -56 147 -66 l32 -20 68 46 c37 25 118 82 178 126 132 96
386 268 545 369 274 174 386 244 555 347 741 450 1059 653 1216 774 193 150
257 203 370 305 200 180 407 453 458 606 38 114 25 256 -33 358 -29 51 -124
159 -169 191 -62 45 -231 95 -452 133 -244 43 -294 49 -670 86 -60 6 -200 13
-310 15 l-200 4 100 -14z m1635 -723 c0 -24 -49 -122 -61 -122 -5 0 -3 12 5
28 7 15 17 43 21 62 4 19 9 38 12 43 8 14 23 7 23 -11z m-365 -528 c-49 -43
-60 -26 -14 22 23 24 36 31 43 23 8 -8 -1 -21 -29 -45z m-455 -383 c0 -16 -99
-99 -157 -132 -38 -22 -58 -28 -65 -21 -24 24 19 65 135 126 71 37 87 42 87
27z m-600 -398 c-1 -7 -78 -49 -113 -62 -28 -10 10 22 51 44 50 26 62 29 62
18z m-245 -149 c-35 -27 -95 -55 -95 -44 0 6 24 22 53 35 60 29 70 31 42 9z
m-215 -129 c0 -9 -111 -77 -117 -72 -10 10 9 27 55 52 48 24 62 29 62 20z
m-250 -155 c0 -5 -18 -19 -40 -30 -33 -17 -40 -18 -40 -6 0 9 12 22 28 30 32
18 52 20 52 6z m-415 -260 c-3 -6 -21 -17 -38 -26 l-32 -17 24 27 c23 25 59
37 46 16z m-380 -217 c0 -7 -40 -40 -89 -73 -66 -45 -91 -57 -97 -48 -10 16
-10 16 82 83 70 52 104 64 104 38z"/>
<path d="M1325 3599 c-117 -64 -355 -219 -355 -231 0 -23 19 -12 220 118 52
33 134 83 183 109 81 46 104 65 75 65 -7 0 -62 -27 -123 -61z"/>
<path d="M1530 3630 c0 -25 52 -156 105 -264 203 -416 549 -776 942 -980 l72
-38 34 26 c19 14 39 26 45 26 29 0 5 19 -80 64 -343 182 -623 443 -823 766
-65 106 -136 247 -159 316 -9 28 -22 58 -29 67 -16 20 -107 35 -107 17z"/>
<path d="M1726 3595 c20 -66 136 -285 209 -394 141 -213 304 -385 495 -522
130 -93 180 -123 299 -176 l93 -43 77 62 c42 35 78 64 80 65 2 1 -2 11 -10 20
-13 16 -12 17 3 4 10 -7 24 -11 31 -8 30 11 260 212 301 263 201 247 96 431
-314 549 -260 75 -628 135 -1142 188 -127 12 -128 12 -122 -8z m847 -336 c12
-7 25 -17 29 -23 11 -16 9 -68 -2 -86 -6 -10 -2 -24 16 -47 35 -46 30 -54 -7
-10 -26 31 -33 35 -50 26 -22 -11 -39 -3 -71 36 -25 28 -22 62 7 90 27 28 45
31 78 14z m474 -105 c12 -3 27 -19 34 -36 10 -25 9 -33 -8 -56 -25 -34 -49
-39 -74 -16 -21 19 -25 64 -9 95 11 20 21 22 57 13z m-247 -296 c0 -6 -7 -5
-15 2 -8 7 -15 17 -15 22 0 6 7 5 15 -2 8 -7 15 -17 15 -22z"/>
<path d="M4615 3449 c-4 -5 22 -40 57 -77 79 -84 115 -145 130 -217 46 -232
-215 -632 -652 -999 -252 -211 -402 -318 -810 -577 -228 -145 -244 -155 -425
-265 -427 -259 -920 -579 -1170 -759 -66 -47 -166 -118 -222 -158 -56 -40
-102 -75 -103 -78 0 -4 11 -10 25 -13 13 -3 52 -19 86 -35 l62 -29 91 66 c50
36 116 84 146 107 141 107 821 565 1045 704 171 107 439 278 665 426 758 497
1189 914 1342 1300 30 74 32 89 32 205 1 120 0 127 -29 183 -36 71 -117 158
-174 186 -66 34 -90 41 -96 30z"/>
<path d="M853 3413 c-12 -2 -33 -16 -48 -31 -23 -23 -26 -32 -20 -68 6 -41 5
-43 -51 -90 -75 -64 -221 -211 -297 -299 -34 -38 -97 -107 -141 -152 -44 -45
-77 -86 -73 -89 4 -4 7 -2 7 5 0 7 4 10 9 7 9 -6 122 109 256 262 50 56 108
114 130 128 22 15 70 58 106 98 l67 71 32 -19 c38 -22 83 -16 117 16 35 33 32
100 -6 139 -28 28 -41 31 -88 22z"/>
<path d="M4110 3415 c0 -3 15 -26 34 -52 63 -89 78 -130 78 -207 -1 -252 -282
-583 -821 -967 -91 -66 -191 -137 -221 -159 -54 -39 -346 -215 -570 -344 -152
-87 -143 -80 -135 -105 9 -29 19 -27 99 20 95 56 229 134 351 204 293 169 561
340 700 444 162 122 383 312 475 407 261 271 330 540 168 652 -24 16 -65 48
-93 71 -46 38 -65 49 -65 36z"/>
<path d="M5520 3372 c0 -44 -117 -362 -201 -547 -12 -27 -39 -99 -60 -160 -30
-89 -41 -111 -58 -113 -11 -2 -29 -15 -40 -28 -16 -21 -18 -30 -9 -50 9 -19 8
-28 -4 -41 -144 -170 -182 -213 -189 -213 -14 0 -11 254 3 268 9 9 9 12 -1 12
-11 0 -13 19 -9 90 3 50 2 90 -3 90 -15 0 -20 -40 -13 -109 l6 -70 -43 -4 -44
-4 43 -1 42 -2 0 -119 c0 -66 -3 -126 -6 -135 -14 -37 -52 -17 -135 74 -45 49
-85 88 -87 85 -7 -7 23 -48 84 -114 57 -62 57 -62 58 -128 1 -63 0 -66 -34
-95 -19 -17 -59 -53 -88 -81 l-54 -50 -103 103 c-89 89 -106 102 -119 90 -9
-7 -16 -17 -16 -24 0 -6 34 -45 76 -87 42 -42 74 -81 71 -87 -4 -5 -68 -35
-144 -67 -76 -32 -201 -85 -278 -117 -134 -57 -178 -79 -125 -63 47 14 335
126 453 176 95 41 121 48 132 39 8 -7 15 -18 15 -26 0 -14 -178 -192 -207
-207 -10 -5 -29 -20 -43 -33 -14 -13 -57 -37 -95 -54 -133 -60 -155 -70 -155
-76 0 -17 188 63 223 94 15 13 22 14 38 3 23 -14 49 0 49 27 0 8 51 64 112
123 l113 108 50 -47 c27 -26 73 -72 102 -102 l52 -54 -22 -24 c-75 -80 -506
-353 -556 -352 -9 1 -49 31 -90 68 -66 61 -74 72 -76 108 -2 29 -7 40 -21 41
-89 12 -105 19 -164 75 -33 32 -60 62 -60 68 0 12 -37 13 -44 1 -6 -10 66 -86
122 -128 17 -14 32 -29 32 -34 0 -25 -143 -67 -390 -114 -196 -38 -294 -66
-279 -78 2 -2 74 6 159 18 174 25 380 73 454 105 l49 21 28 -27 c22 -21 34
-25 57 -21 25 5 36 -2 91 -57 34 -34 59 -65 56 -68 -4 -3 -34 -4 -68 -2 -62 3
-62 3 -19 -8 23 -6 42 -15 42 -19 0 -25 -226 -101 -495 -166 -168 -40 -396
-52 -645 -33 -105 8 -119 7 -157 -12 -24 -11 -43 -23 -43 -28 0 -21 273 -50
469 -50 166 0 277 16 486 70 233 60 289 78 399 128 88 40 101 43 122 31 36
-19 137 -102 141 -116 8 -25 -225 -124 -442 -188 -162 -48 -334 -81 -492 -96
-127 -11 -132 -11 -166 10 -45 27 -73 27 -112 -4 l-33 -24 -143 9 c-196 13
-229 19 -263 42 -25 18 -33 19 -66 9 -48 -14 -79 -14 -135 1 -43 12 -46 11
-75 -17 -16 -16 -30 -32 -30 -35 0 -4 32 -12 70 -19 39 -7 91 -24 116 -37 39
-21 57 -24 127 -22 45 1 151 -2 236 -6 149 -9 155 -10 186 -38 44 -38 88 -38
123 0 25 26 35 29 122 36 308 23 623 105 957 247 84 37 147 58 151 53 4 -5 59
-54 122 -108 203 -175 196 -167 192 -214 -3 -36 0 -46 26 -72 36 -36 71 -39
107 -7 27 23 35 61 21 103 -5 17 1 28 26 49 18 15 72 65 119 111 58 56 92 82
102 78 19 -7 73 20 81 41 12 32 6 64 -16 79 -34 24 -63 19 -92 -15 -29 -34
-31 -42 -16 -69 9 -16 2 -27 -42 -67 -28 -26 -79 -77 -114 -113 -54 -56 -64
-62 -78 -51 -11 9 -30 12 -58 8 -39 -5 -44 -3 -97 47 -31 29 -92 85 -136 123
-44 39 -88 79 -98 91 -18 20 -18 21 30 47 190 107 314 189 442 290 24 19 47
35 50 34 3 0 57 -56 119 -124 89 -98 112 -129 112 -152 0 -39 28 -63 71 -63
45 0 59 15 59 61 0 43 -27 69 -70 69 -28 0 -83 52 -165 155 -26 33 -54 65 -62
72 -13 10 4 32 120 146 129 126 136 132 142 107 4 -14 14 -33 22 -42 18 -20
73 -24 103 -8 15 8 31 2 82 -34 64 -44 381 -232 498 -294 36 -19 79 -50 96
-69 33 -34 64 -42 82 -21 6 7 57 105 114 217 102 202 103 204 103 275 0 127
-59 210 -175 248 -68 21 -70 21 -131 4 -74 -20 -132 -63 -162 -120 -17 -32
-22 -58 -22 -121 0 -76 3 -86 48 -180 27 -55 62 -121 78 -147 20 -34 25 -48
15 -48 -14 0 -227 120 -463 262 -114 68 -133 83 -133 104 0 37 -15 60 -49 74
l-30 12 36 35 c39 40 201 241 277 346 27 37 52 67 56 67 8 0 30 -46 30 -63 -1
-7 -55 -70 -121 -142 -111 -119 -199 -234 -199 -257 0 -19 21 5 71 78 28 41
95 120 149 175 82 82 103 99 122 94 33 -8 50 8 46 41 -2 21 -9 30 -24 32 -12
2 -32 14 -45 28 l-23 25 32 62 c70 136 137 254 146 253 4 -1 102 -96 217 -212
115 -116 210 -206 212 -200 2 6 -13 25 -34 42 -21 17 -35 35 -31 39 4 5 2 5
-4 2 -6 -3 -37 24 -69 61 -31 37 -109 120 -172 185 l-115 118 47 102 c81 173
80 171 43 223 l-32 44 -46 -117 c-55 -138 -71 -173 -79 -173 -20 0 -221 233
-221 255 0 6 25 35 56 65 72 71 158 179 150 188 -4 4 -51 -41 -106 -98 -94
-101 -122 -120 -101 -69 30 73 44 142 33 159 -15 24 -4 64 14 49 10 -8 15 -2
23 29 19 70 24 128 12 151 -14 25 -36 28 -45 5 -11 -29 -6 -38 9 -18 15 17 15
14 11 -41 -3 -33 -5 -61 -5 -61 -1 -1 -8 -5 -17 -8 -12 -4 -15 -2 -10 9 3 8 1
15 -4 15 -5 0 -12 -12 -16 -27 -3 -16 -12 -50 -20 -77 -21 -73 -19 -81 13 -57
14 12 27 20 29 18 4 -4 -23 -108 -30 -115 -3 -3 -6 3 -6 13 0 15 -2 16 -17 4
-15 -12 -16 -12 -10 3 4 12 2 15 -9 11 -7 -3 -14 -17 -14 -31 0 -23 -2 -24
-14 -12 -20 20 -137 248 -177 343 -32 79 -59 101 -59 49z m121 -253 c55 -102
99 -197 99 -212 0 -14 -6 -41 -14 -59 -8 -18 -22 -53 -31 -78 -9 -25 -32 -77
-50 -115 -19 -39 -41 -87 -50 -107 -13 -32 -21 -39 -55 -44 -22 -4 -40 -11
-40 -15 0 -5 11 -7 25 -3 46 11 28 -37 -65 -176 -20 -30 -50 -75 -66 -100 -40
-62 -143 -199 -176 -233 l-27 -28 -98 73 c-95 72 -98 75 -95 110 2 20 -2 46
-8 58 -10 18 -4 28 53 88 35 37 80 87 98 112 30 39 38 45 66 42 25 -2 39 3 57
22 22 25 29 26 125 26 66 0 100 4 96 10 -3 6 -52 10 -111 10 -73 0 -104 4
-104 12 0 6 -6 19 -14 27 -13 14 -9 34 38 161 30 80 82 213 116 295 35 83 77
191 94 242 17 51 33 87 35 80 2 -7 48 -96 102 -198z m252 -366 c47 -49 100
-107 117 -131 l31 -43 -64 -122 c-87 -167 -222 -369 -345 -517 -101 -120 -160
-180 -179 -180 -16 0 -193 118 -193 129 0 10 29 51 68 94 46 53 251 366 295
452 45 88 83 174 109 245 12 30 25 66 30 80 l10 25 9 -24 c9 -23 45 -190 54
-247 4 -28 33 -115 40 -123 3 -2 2 19 -2 48 -4 37 -2 51 6 51 9 0 8 5 -2 15
-8 8 -20 45 -26 82 -7 37 -21 101 -31 141 -19 67 -25 112 -16 112 2 0 42 -39
89 -87z m-835 -756 l103 -78 -30 -37 c-16 -20 -69 -75 -118 -122 l-88 -85
-109 113 -110 113 89 89 c115 115 120 115 263 7z m256 -210 c49 -34 91 -68 94
-76 8 -23 -243 -251 -276 -251 -6 0 -42 35 -81 79 l-71 78 118 116 c64 64 119
117 122 116 3 0 45 -28 94 -62z m1117 8 c50 -33 72 -84 67 -155 -7 -93 -67
-149 -161 -150 -59 0 -97 19 -134 67 -24 31 -28 46 -28 98 0 52 4 67 29 99 58
76 149 93 227 41z m-1351 -374 c0 -16 -149 -132 -270 -209 -244 -156 -274
-162 -380 -76 -39 31 -68 60 -65 64 3 5 48 31 101 59 114 62 257 156 379 251
l90 70 73 -75 c39 -41 72 -79 72 -84z"/>
<path d="M5708 2493 c18 -2 45 -2 60 0 15 2 0 4 -33 4 -33 0 -45 -2 -27 -4z"/>
<path d="M5543 1985 c0 -38 2 -53 4 -32 2 20 2 52 0 70 -2 17 -4 1 -4 -38z"/>
<path d="M1600 3230 c6 -11 13 -20 16 -20 2 0 0 9 -6 20 -6 11 -13 20 -16 20
-2 0 0 -9 6 -20z"/>
<path d="M918 3197 c-16 -6 -28 -17 -28 -25 0 -7 18 -59 40 -115 34 -87 47
-108 88 -143 64 -55 103 -137 110 -229 5 -68 7 -73 95 -205 49 -74 131 -187
182 -250 101 -125 296 -334 326 -350 13 -7 28 -5 53 7 20 9 36 19 35 22 0 3
-17 20 -37 36 -21 17 -88 84 -149 150 -303 325 -467 586 -633 1008 -24 59 -46
107 -49 106 -3 -1 -18 -6 -33 -12z"/>
<path d="M1637 3168 c11 -18 39 -67 63 -108 38 -67 121 -198 171 -271 79 -116
103 -150 120 -165 19 -17 20 -17 13 2 -4 10 -13 22 -20 27 -20 12 -196 279
-278 422 -7 11 -27 44 -45 73 -35 56 -55 73 -24 20z"/>
<path d="M778 2910 c-81 -24 -150 -94 -168 -169 -16 -67 -7 -122 34 -207 38
-80 162 -290 175 -298 9 -6 134 175 189 274 43 77 65 161 57 213 -21 132 -163
224 -287 187z m132 -92 c101 -69 105 -191 9 -256 -28 -20 -44 -23 -89 -20 -65
5 -99 26 -130 81 -71 124 92 275 210 195z"/>
<path d="M1523 2696 c4 -10 7 -26 7 -37 0 -10 7 -19 14 -19 12 0 13 6 4 30 -5
17 -15 33 -21 37 -7 4 -8 0 -4 -11z"/>
<path d="M2010 2596 c0 -2 8 -10 18 -17 15 -13 16 -12 3 4 -13 16 -21 21 -21
13z"/>
<path d="M2040 2556 c0 -2 8 -10 18 -17 15 -13 16 -12 3 4 -13 16 -21 21 -21
13z"/>
<path d="M1030 2406 c0 -19 12 -70 26 -113 14 -43 41 -130 60 -193 20 -63 40
-120 46 -127 7 -9 4 -15 -15 -22 -61 -23 -75 -95 -28 -142 36 -36 79 -38 115
-6 40 34 43 77 11 115 -15 18 -35 32 -45 32 -11 0 -18 8 -18 23 -1 65 -119
458 -140 465 -8 2 -12 -9 -12 -32z"/>
<path d="M2000 2393 c-50 -18 -65 -67 -30 -98 36 -33 120 -3 120 42 0 18 -45
63 -62 62 -7 0 -20 -3 -28 -6z"/>
<path d="M4563 2143 c15 -2 37 -2 50 0 12 2 0 4 -28 4 -27 0 -38 -2 -22 -4z"/>
<path d="M1715 2060 c-10 -11 -16 -22 -13 -25 3 -3 13 4 23 15 10 11 16 22 13
25 -3 3 -13 -4 -23 -15z"/>
<path d="M3975 1660 c-13 -6 -15 -9 -5 -9 8 0 22 4 30 9 18 12 2 12 -25 0z"/>
<path d="M2335 1543 c-16 -9 -45 -27 -63 -41 -32 -25 -33 -25 -13 -43 11 -11
28 -19 38 -19 24 0 113 52 138 81 11 12 15 19 9 16 -7 -4 -27 -1 -45 7 -30 12
-38 12 -64 -1z"/>
<path d="M4058 1253 c6 -2 18 -2 25 0 6 3 1 5 -13 5 -14 0 -19 -2 -12 -5z"/>
<path d="M1773 1209 c-56 -28 -66 -41 -49 -65 14 -18 15 -18 64 5 60 28 120
73 86 65 -12 -3 -25 -1 -28 5 -10 16 -26 14 -73 -10z"/>
</g>
</svg>
